<svg width="1024" height="1024" viewBox="0 0 1024 1024" fill="none" xmlns="http://www.w3.org/2000/svg">
<path d="M244 638L245.864 628.215L253.785 624.953C264.968 620.604 274.062 615.589 290.792 598.514C307.521 581.438 318.915 502.721 318.915 502.721C322.943 484.065 328.494 441.487 331.601 423.47C334.707 405.143 336.651 386.545 334.126 366.465C331.601 346.385 314.205 346.309 301.779 341.649L297.12 339.785L299.449 330H410.348C434.578 330 453.838 333.262 468.127 339.785C482.417 346.309 492.668 354.851 498.881 365.413C505.404 375.664 508.666 387.002 508.666 399.428C508.666 417.135 500.9 433.288 485.368 447.888C470.146 462.177 447.314 471.186 416.872 474.914C447.314 478.952 469.37 488.271 483.038 502.871C497.017 517.471 504.006 533.935 504.006 552.263C504.006 567.485 499.347 581.619 490.027 594.666C480.708 607.713 466.263 618.274 446.693 626.351C427.123 634.117 401.65 638 370.275 638H244ZM359.092 469.322H376.799C400.718 469.322 418.735 463.265 430.85 451.15C442.965 438.724 449.023 421.484 449.023 399.428C449.023 381.722 444.674 368.053 435.976 358.424C427.589 348.483 415.163 343.513 398.699 343.513H382.856L359.092 469.322ZM331.601 624.487H360.49C388.137 624.487 408.64 617.032 421.997 602.121C435.665 587.21 442.499 567.951 442.499 544.342C442.499 503.027 421.686 482.369 380.061 482.369H356.763L354.433 493.552C350.705 515.297 346.822 537.042 342.784 558.787C338.745 580.531 335.018 602.432 331.601 624.487Z" fill="white" style="fill:white;fill-opacity:1;"/>
</svg>
