<svg width="1024" height="1024" viewBox="0 0 1024 1024" fill="none" xmlns="http://www.w3.org/2000/svg">
<path d="M588.992 638.328C568.315 638.328 551.411 631.622 538.279 618.21C525.426 604.799 519 585.38 519 559.954C519 542.351 522.073 525.447 528.22 509.241C534.367 493.036 542.75 478.646 553.367 466.073C564.264 453.22 576.977 443.162 591.506 435.897C606.035 428.632 621.682 425 638.447 425C655.77 425 668.902 428.912 677.843 436.735C687.064 444.559 691.674 455.036 691.674 468.168C691.674 484.095 681.056 499.881 659.821 515.528C638.866 530.895 608.41 542.91 568.455 551.572C569.293 569.733 573.624 583.005 581.448 591.387C589.271 599.769 600.028 603.961 613.719 603.961C626.013 603.961 637.05 600.747 646.829 594.321C656.608 587.895 668.244 577.768 674.95 569.107L681.237 573.717C675.648 584.334 664.99 596.975 656.049 606.475C647.388 615.975 637.469 623.659 626.292 629.526C615.116 635.394 602.683 638.328 588.992 638.328ZM634.256 439.25C627.829 439.25 620.984 442.044 613.719 447.632C606.455 452.941 599.469 460.345 592.764 469.845C586.337 479.065 580.889 489.823 576.418 502.116C571.948 514.131 569.293 526.984 568.455 540.675C599.749 531.454 621.682 519.999 634.256 506.308C647.108 492.617 653.535 478.087 653.535 462.72C653.535 454.617 651.719 448.75 648.086 445.117C644.454 441.206 639.844 439.25 634.256 439.25Z" fill="white" style="fill:white;fill-opacity:1;"/>
</svg>
