<?xml version="1.0" encoding="UTF-8"?>
<svg id="Vector_layer" xmlns="http://www.w3.org/2000/svg" viewBox="0 0 599.57 522.75">
  <defs>
    <style>
      .cls-1 {
        fill: #fff;
      }
    </style>
  </defs>
  <path class="cls-1" d="M241.42,130.53c.01-.11.02-.23.04-.34.01.23,0,.46-.05.68,0,.03-.01.05-.02.08.01-.14.02-.28.03-.42Z"/>
  <path class="cls-1" d="M357.07,75.43s.04-.04.05-.07h0s.05.09.08.13c-.04-.02-.09-.04-.13-.06Z"/>
  <path class="cls-1" d="M324.66,99.06c-.1-.18-.25-.33-.43-.44.26.1.49.25.68.43-.05.06-.11.13-.17.19-.02-.06-.05-.12-.08-.18Z"/>
  <path class="cls-1" d="M281.67,103.15c-2.51-.29-4.62-1.84-6.89-2.77-1.71-.38-3.48-.65-5.22-.68,2.2-1.19,4.47-2.11,6.86-.61,5.03,3.5,7.5,3.11,12.43-.14.51-.14,1.28-.38,1.69.04.15.22-.11.62-.32.33-1.33.38-2.15,1.58-3.27,2.31-1.53,1.09-3.38,1.73-5.27,1.53Z"/>
  <path class="cls-1" d="M305.8,92.83c-1.24-.44,2.24-3.14,2.78-3.46,3.3-1.76,7.05-3.2,10.84-2.82,2.58.56,5.57,1.46,7.21,3.64.22.39.45.82.57,1.24-1.1-.03-2.16-.37-3.07-.98-4.78-3.35-10.23-2.02-15.12.27-1.2.56-1.91,1.81-3.22,2.11Z"/>
  <path class="cls-1" d="M272.29,89.55c.27-.13.55-.28.82-.42.84-.43,1.6-.97,2.37-1.5.04-.03.09-.05.13-.07.16-.07.31-.13.47-.19.68-.22,1.36-.43,2.03-.65.11-.04.23-.07.34-.11,4.1,0,8.74,1.53,11.02,5.1.06.04.12.07.15.14.21,1.1-1.87-.8-2.19-.97-3.07-1.81-6.88-3.02-10.44-2.33-1.34.32-2.46,1.14-3.5,2.01-1.57,1.2-3.39,2.29-4.96,3.37,1.19-1.42,2.38-3.03,3.75-4.37Z"/>
  <path class="cls-1" d="M314.11,103.15c-1.19-.05-2.34-.42-3.46-.8-1.5-.77-2.72-2.06-3.84-3.3-.18-.04-.21-.33-.14-.45.17-.4.58-.12.84.02.9.45,1.79.93,2.55,1.6,1.87,1.07,4.45,1.52,6.46.63,1.79-1.07,3.63-2.31,5.75-2.59,1.07-.08,2.11.35,3.12.62-.59.27-1.31.52-1.95.76-1.43.44-2.93,1.01-4.28,1.61-1.57.91-3.14,2.02-5.05,1.91Z"/>
  <path class="cls-1" d="M287.27,129.2c-.37-.08-1.08-.19-1-.69-.05-.29.31-.48.39-.13,3.3.2,5.79-2.34,8.97-2.59.91-.04,1.7.61,2.61.52,1.97-.36,3.85-1.62,5.89-.87,2.33.64,4.34,1.97,6.48,3.03-.1.06-.31-.04-.46-.03,0,0,0,0,0,0-1.82-.06-3.6-.45-5.22-1.28-1.15-.58-2.3-.94-3.54-.49-1.15.29-2.17,1.05-3.38,1.06-.99,0-1.85-.77-2.84-.61-2.75.39-4.99,2.7-7.9,2.07Z"/>
  <path class="cls-1" d="M296.83,132.69c-3.23-.38-6.83-.77-9.58-2.61-.53-.94,1.47-.08,1.87-.06,3.18.74,6.49,1.37,9.76,1.17,2.78-.42,5.53-1.09,8.29-1.66-3.05,1.92-6.56,3.6-10.33,3.16Z"/>
  <path class="cls-1" d="M295.96,137.54c-3.82-.66-6.75-3.76-8.98-6.73-.17-.24-.44-.48-.56-.7.71.19,1.47.28,2.15.57,2.26,1.01,3.72,3.26,5.97,4.3,6.55,2.7,10.58-3.37,15.63-6.23.02-.14.17-.26.29-.17.14.12.13.33.05.48-.71,1.26-1.85,2.18-2.91,3.14-3.45,3.19-6.55,6.21-11.64,5.34Z"/>
  <path class="cls-1" d="M354.98,353.49s0,0,0,0c0,.04,0,.08,0,.11,0-.04,0-.07,0-.11Z"/>
  <path class="cls-1" d="M62.35,423.75c-4.9-1.1-9.09-5.18-6.34-10.32,1.15-2.32,1.64-5.11,3.37-7.07-.06-.26.11-.74.15-.55,0,0,0,0,0,0,0,0,0,0,0,0,1.12.32,2,1.56,2.96,2.15,3.38,2.25,7.7,3.37,9.96,7.02,3.91,7.06-4.3,10.17-10.09,8.77ZM66.5,421.79c5.07-.47,7.07-3.82,2.99-7.53-2.78-2.5-6.81-3.26-9.3-6.16-.68,2.27-1.82,4.67-2.71,6.82-.38.87-.77,1.82-.43,2.76,1.69,3.24,6.02,4.42,9.44,4.11Z"/>
  <path class="cls-1" d="M311.76,126.56c0-.32.21-.71.57-.71s.57.39.57.71-.21.71-.57.71-.57-.39-.57-.71Z"/>
  <path class="cls-1" d="M258.68,73.89c-.06.24-.14.46-.22.68.07-.23.15-.45.22-.68Z"/>
  <path class="cls-1" d="M300.02,334.09c.03.12-.14.12-.21.09-.93-.43-1.34-1.57-2.02-2.28-1.29-1.68-2.92-3.01-4.51-4.38-2.1-1.56-4.05-3.36-6.32-4.67-2.66-1.53-5.63-2.54-8.56-3.42-6.13-2.14-12.75-.67-18.87-2.5-3.09-.95-5.13-3.52-7.31-5.74-2.58-3.31-4.23-7.23-5.47-11.21-1.01-2.32-1.92-4.66-2.5-7.12-.07-.56.36-.56.76-.26,5,2.99,10.31,5.36,15.45,8.1,3.31,1.7,6.44,3.86,8.93,6.65,2.25,2.51,3.95,5.48,6.28,7.9,1.9,1.83,4.21,3.07,6.54,4.25.3.16.52.43.72.7-.06.05-.21.02-.31.04,3.43,1.17,6.39,3.2,9.15,5.5,3.13,2.36,6.05,5.09,8.2,8.36,0,0,.01,0,.01,0h.01s.01-.02.02-.02c0,0,0,0,0,0Z"/>
  <path class="cls-1" d="M298.22,457.97s0,0,0,0c0,0,0,0,0,0Z"/>
  <path class="cls-1" d="M69.56,407.13s0,0,0,0c0,0,0,0,0,0Z"/>
  <path class="cls-1" d="M68.94,407.26h.04s0,0,0,0c.03.03.06.05.09.08-.04-.02-.09-.05-.13-.07Z"/>
  <path class="cls-1" d="M48.34,445.46c-3.82-.37-8.43.08-11.41-2.74-1.37-1.52-1.62-3.96-3.77-4.73-1.35-.74-3.42-.57-4.13-2.16-.63-1.62.95-2.96,1.18-4.51.18-1.05-.22-2.08-.27-3.11-.32-2.13,1.42-3.91,3.5-4.04,2.8-.38,5.31.75,7.82,1.88,2.43,1.1,4.85,2.2,7.54,1.92.98-.11,3.02-.55,2.07-1.86-3.79-4.69-4.56-8.43-2.28-14.08,1.1-3.25,2.49-6.36,3.26-9.67.37-1.66.55-3.49,1.67-4.84,1.72-2.08,3.63-.94,5.7-.33,3.39-.04,4.95,2.37,4.62,5.55,1.95.36,3.49,1.52,4.78,2.94-.07.04-.13.08-.2.12-.14.09-.29.19-.43.29-.25.16-.49.34-.73.52-.01,0-.03-.02-.04-.03-.1-.1-.21-.2-.32-.3-1.02-1.09-2.47-1.4-3.79-1.91-.43-.25-.61-.75-.69-1.22.15-5.12-2.34-3.14-5.64-4.76-2.88-.71-2.94,3.2-3.41,5.08-1.08,4.42-3.23,8.66-4.18,13.07-1.6,5.09,6.05,8.7,2.72,12.23-5.43,3.71-11.16-2.12-16.61-2.71-1.67-.27-4.5.21-3.68,2.57.66,2.16,0,4.41-1.04,6.3.39.34,1.22.4,1.63.56,2.04.5,3.88,1.75,4.73,3.71.55,1.52,1.69,2.84,3.32,3.16,10.23,2.36,20.79-.15,30.67-2.84,12.97-3.8,25.11-10.02,37.17-15.98,12.87-7.68,26.11-14.73,39.02-22.33,6.46-3.84,11.82-8.85,18.07-12.94,4.5-3.23,9.29-6.2,13.29-10.01,5.04-5.09,9.68-10.71,14.39-16.08,4.7-6.01,7.48-13.23,10.38-20.23,4.22-9.52,8.15-19.2,10.53-29.36,3.38-15.66,9.83-30.36,16.8-44.71.82-1.79,1.48-3.63,2.05-5.52.33-.81.47-1.86,1.31-2.28.73-.21,1.2.59,1.33,1.21,1.68,5.68,2.15,11.57,2.69,17.44.08.29.16.58.22.88,1.12,4.17,2.75,8.19,3.65,12.41,1.15,7.31,2.52,14.55,3.14,21.92,1.16,11.88,1.79,23.82,1.7,35.74-.24,5.32-1.18,10.62-1.75,15.87-1.21,9-1.67,18.79-7.54,26.19-1.57,1.99-3.1,4.12-5.16,5.36-.44.46-1.2.93-1.43,1.05-6.36,2.95-13.68,3.12-20.48,4.32-9.43,1.77-18.9,3.3-28.3,5.21-10.36,2.58-20.9,4.52-31.19,7.38-4.18,1.41-8.29,2.75-12.57,3.81-3.07.94-6.15,2.54-9.36,2.75h-.02s-.03,0-.04,0c-.27.05-.55.05-.86.02.13-.18.27-.33.43-.45,1.49-1.42,3.52-1.99,5.45-2.58,2.55-.82,4.93-1.82,7.53-2.32,5.42-1.37,10.57-3.69,16.11-4.65,8.5-1.81,16.93-3.92,25.42-5.75,8.96-1.66,18-3.15,26.96-4.7,4.15-.57,8.3-1.2,12.45-1.77,2.05-.34,4.33-.67,6.41-1.34,11.38-10.19,12.51-16.43,14.26-30.91.58-5.62,1.48-11.21,1.95-16.81.11-11.43-.52-22.77-1.46-34.14-.56-8.02-1.96-15.91-3.21-23.84-.89-3.97-2.45-7.75-3.41-11.71-.13-.77-.34-1.52-.61-2.25.11-.37.2-.73.29-1.1-.76-4.81-1.15-9.68-2.48-14.36-1.11,4.24-3.11,8.19-4.92,12.14-2.98,7.05-6.26,14.01-8.8,21.23-3.44,9.6-5.08,19.73-8.39,29.36-3.31,9.32-7.12,18.48-11.2,27.49-2.99,6.95-7.71,12.81-12.93,18.2-2.72,3.02-5.21,6.26-8.24,8.98-5.05,4.64-11.02,8.32-16.57,12.24-4.83,3.35-9.23,7.29-14.32,10.25-9.13,5.61-18.7,10.49-27.95,15.91-4.83,2.66-9.57,5.49-14.38,8.2-4.68,2.3-9.45,4.38-14.18,6.59-8.53,3.88-17.39,7.32-26.5,9.51-5.18,1.39-10.48,2.41-15.84,2.41-.5,0-.99,0-1.48-.03Z"/>
  <path class="cls-1" d="M298.23,457.97s0,0,0,0c0,0,0,0,0,0Z"/>
  <path class="cls-1" d="M412.27,504.22c-.94-.16-1.85-.42-2.76-.69-1-.3-1.99-.59-2.99-.88-.98-.29-1.98-.56-2.98-.8-.91-.22-1.83-.44-2.75-.65-1.61-.38-3.23-.71-4.87-.95-1.5-.23-3.04-.38-4.55-.45-2.33-.11-4.68-.07-7,.06-2.17.12-4.34.37-6.5.6-.73.08-1.45.14-2.18.2-.88.08-1.77.19-2.64.3-1.93.24-3.86.52-5.8.75-2.45.29-4.91.5-7.38.67-1.99.14-3.98.27-5.98.36-2.27.1-4.53.12-6.8.1-2.34-.02-4.68-.07-7-.26-3.3-.28-6.58-.75-9.84-1.31-2.94-.51-5.87-1.09-8.78-1.77-2.12-.49-4.22-1.01-6.33-1.55-1.73-.44-3.46-.89-5.21-1.3-2.23-.52-4.45-1.01-6.69-1.48-2.44-.52-4.91-.88-7.37-1.24-1.28-.18-2.56-.36-3.84-.52-1.3-.16-2.61-.28-3.92-.39-2.42-.2-4.84-.44-7.27-.56-2.1-.09-4.19-.14-6.29-.21-2.3-.07-4.61-.14-6.91-.26-1.99-.11-3.98-.25-5.96-.38-2.11-.14-4.21-.27-6.33-.37-2.82-.14-5.64-.29-8.46-.38-3.16-.09-6.32-.09-9.48-.11-1.42,0-2.83-.02-4.25,0-1.31.02-2.62.07-3.94.12-2.73.12-5.46.3-8.19.44-2.63.13-5.26.25-7.89.31-2.74.07-5.48.08-8.23.05-3.44-.04-6.88-.19-10.3-.4-3.29-.2-6.57-.45-9.86-.72-5.17-.44-10.35-.82-15.53-1.08-3.1-.15-6.2-.28-9.3-.36-2.85-.07-5.71-.09-8.56-.11-3.15-.01-6.3-.04-9.45-.17-3.3-.13-6.61-.39-9.89-.77-1.45-.17-2.89-.37-4.33-.61-1.35-.23-2.7-.5-4.04-.79-1.31-.28-2.61-.6-3.91-.94-1.27-.32-2.54-.67-3.8-1.05-1.29-.39-2.57-.79-3.84-1.23-1.37-.48-2.73-1.02-4.06-1.6-1.55-.67-3.06-1.43-4.53-2.28-1.22-.71-2.39-1.51-3.5-2.36-.92-.71-1.8-1.47-2.63-2.28-.74-.71-1.43-1.48-2.05-2.29-.64-.84-1.19-1.75-1.72-2.67-.51-.87-.95-1.78-1.37-2.7-.43-.94-.8-1.91-1.13-2.89-.18-.54-.33-1.1-.46-1.65-.15-.64-.29-1.29-.41-1.93-.22-1.21-.31-2.45-.39-3.68-.07-1.06-.09-2.11-.05-3.17.03-.96.11-1.91.26-2.86.14-.93.35-1.84.6-2.74.23-.84.52-1.66.82-2.47.28-.73.57-1.45.91-2.16.67-1.41,1.5-2.73,2.41-3.99,1.22-1.67,2.68-3.14,4.19-4.55.95-.88,1.93-1.71,2.96-2.48.96-.73,1.96-1.42,2.98-2.08,1.55-1,3.15-1.93,4.79-2.8-.02.01-.03.02-.04.03.53-.29,1.07-.55,1.61-.81-.25.01-.5,0-.75.03h0s-.02-.02,0-.02c.08-.07.19-.11.28-.16.15-.09.3-.18.45-.25.2-.1.39-.19.6-.27.23-.09.47-.14.71-.21.62-.17,1.24-.32,1.87-.46.2-.08.39-.15.6-.22,1.47-.54,2.98-.99,4.5-1.35,1.22-.29,2.45-.5,3.69-.66.29-.04.59-.08.88-.12.02,0,.03,0,.04,0,.58-.1,1.18-.16,1.77-.22.09,0,.17-.02.25-.03,0,0,.02,0,.02,0,.06,0,.12-.02.18-.02.28-.04.56-.07.84-.09.11-.01.22-.02.34-.04.09,0,.19-.02.28-.03.03,0,.06,0,.09,0h0c.19-.02.37-.04.56-.05,0,0,0,0,0,0,.66-.06,1.32-.12,1.98-.17,1.59-.13,3.18-.23,4.77-.29,1.32-.04,2.64-.02,3.96,0,1.6.02,3.19.15,4.79.29,1.12.09,2.24.18,3.36.28,1.15.07,2.3.15,3.44.25,1.38.11,2.77.26,4.14.41,1.59.18,3.19.42,4.78.63,3.07.41,6.13.88,9.18,1.41.12.02.24.04.36.06.35.05.7.09,1.05.14,6.09.78,12.18,1.62,18.22,2.76,1.45.27,2.89.59,4.33.91,1.44.32,2.88.65,4.32,1.02,1.55.39,3.09.79,4.64,1.2,1.38.36,2.75.75,4.12,1.14,2.93.82,5.83,1.73,8.74,2.62,2.92.91,5.84,1.82,8.74,2.77,1.58.52,3.15,1.06,4.72,1.61,1.63.57,3.27,1.14,4.89,1.73,1.68.61,3.36,1.24,5.03,1.9,1.29.51,2.56,1.03,3.84,1.55.87.35,1.75.7,2.62,1.05.64.23,1.28.45,1.92.68,1.33.47,2.67.92,4.02,1.36.23.07.46.15.7.22.37.12.73.23,1.1.35.17.05.34.11.51.16l.22.07h0c.08.03.17.05.25.08.15-.09.32-.19.48-.27,5.14-1.93,9.91-4.59,14.83-6.98,5.25-2.12,11.1-2.5,16.71-2.15,2.45.19,4.92.36,7.27,1.09,1.45.47,2.85,1.16,4.25,1.83-1.96-5.46-8.31-7.95-13.12-10.6-5.1-2.75-10.03-5.97-14.16-10.08-3.05-3.38-4.8-7.73-6.04-12.06-1.69-5.31-1.64-10.97-2.93-16.36-.34-1.21-.64-2.46-1.21-3.56-.06-.23.2-.58.43-.37.87,1.15,1.77,2.28,2.79,3.3,3.66,3.64,7.78,6.85,11.98,9.85,4.73,2.94,9.25,6.21,13.16,10.19,4.11,4.31,8.25,9.36,8.47,15.58,1,4.04-.73,8.21.44,12.2-.21-1.27-.09-2.63.09-3.94-.43-7.47,1.38-15.14,3.11-22.33.15-.58.32-1.16.49-1.73-.09-8.87-4.06-17.31-11-23.16-3.86-3.15-8.25-5.45-12.09-8.62-.79-.52-1.5-1.11-2.15-1.76,0,0-.02,0-.02,0-.53-.19-1.12-.46-1.49-.88-.32-.2-1.42-.35-1.81-.71-.07.03-.22,0-.47-.1-.18-.11-.35-.22-.53-.32-1.77-.33-3.62-.42-5.39-.26-.69-.03-1.36.22-2.01.47-.78.3-1.55.59-2.34.43-.08.03-.16.04-.24.03-.2.19-.47.3-.72.23.06-.18.19-.35.36-.45.03-.04.06-.07.09-.1.44-.86,1.26-1.55,1.99-2.24-3.41.08-6.89.93-10.03,1.87-.57.19-1.89.88-1.98-.13.45-4.57,10.43-6.9,13.5-4.45-1.92-.08-3.84-.85-5.79-.31-2.79.6-6.66,1.6-7.31,4.77,3.85-1,8.12-2.24,12.27-2.29,1.18-.74,2.59-1.05,3.96-1.29-3.94-1.83-8-3.44-11.23-6.41-2.74-2.33-6.27-4.6-7.02-8.33.03-.2.21-.33.4-.35,1.07-.15,2.09.36,3.12.55,4.28,1.3,8.78,3.5,12.05,6.74-1.62-2.43-2.86-5.1-3.54-7.97-.48-3.88-.62-7.92.04-11.79.55-1.4,2.61.26,3.45.67,4.19,3.26,6.12,8.66,7.09,13.74.34-2.23.9-4.43,1.78-6.56.86-3.07,2.49-5.86,4.58-8.25.49-.62.98-1.44,1.85-1.49.23,0,.38.16.48.35,1.55,3.52,1.88,7.62,1.16,11.39-.42,2.16-1.21,4.18-2.17,6.12,2.46-2.37,5.48-4.12,8.88-4.86.22.07.18.36.11.53-.89,2.12-1.19,4.41-2.07,6.53-1.02,2.01-2.41,3.75-4,5.3.41-.07.81-.12,1.2-.09.14-.08.28-.14.43-.18.2-.15.43-.26.68-.32-.09.29-.27.58-.52.84,0,0,0,0,0,0-.15.18-.11.52-.21.77-1.06,2.25-4.09,2.41-6.11,3.41-1.58.57-2.17,2.2-3.17,3.37.79,1.05,1.74,1.98,2.88,2.73,4,3.3,8.54,5.76,12.52,9.07,1.66,1.42,3.15,2.98,4.46,4.65,0-.09.01-.17.02-.26-.1-.09-.26-.14-.01-.17-5.13-6.48-8.15-14.6-7.61-22.92.95-8.48,4.94-14.98.4-23.49-.56-1.32-1.23-2.46-2.05-3.61-.34-.89.48-.87,1.04-.38,2.52,2.16,5.19,4.24,7.4,6.73,2.42,2.57,4,5.77,5.71,8.83,2.56,5.31,5.09,11.16,4.95,17.15-.45,3.83-1.81,7.64-4.03,10.8-1.61,2.12-3.57,4.05-4.83,6.4-.2.51-.3,1-.62,1.41,3.73,4.96,5.88,10.86,6.24,17.04,2.07-6.14,5.14-11.97,7.14-18.12,1.9-7.16,2.76-14.47,3.24-21.82.24-6.16.4-12.5-1.37-18.46-1.98-7.2-5.99-13.42-10.18-19.49-4.84-7.64-10.91-14.33-16.7-21.22-3.95-5.72-8.63-11.15-10.84-17.84-1.3-3.98-2.21-8.08-3.25-12.14-.5-2.91-1.88-5.88-1.99-8.84-.11-.27-.22-.52-.35-.77-.02-.02-.04-.04-.05-.05,0,.2.02.4.02.59,0,0,0,0,0,0-.28-.29-.42-.66-.54-1.03-.04-.03-.07-.05-.11-.08-1.85-1.45-4-2.34-6.21-3.04-2.66-.79-5.5-1.37-7.58-3.34-1.47-1.44-2.58-3.27-3.33-5.23-.85-.34-1.71-.64-2.58-.93-3.61-.98-6.94-3.03-9.34-5.91-1.2-1.91-2.55-3.54-4.17-5.07-.71-1.7,2.95-.88,3.77-.76,2.98.24,6.06.19,8.84,1.47,3.53,1.67,7.35,2.98,10.04,5.95,1.02,1.01,2.1,1.96,3.17,2.93-.4-1.27-.61-2.61-.86-3.92-.53-.69-1.05-1.39-1.55-2.11-3.75-5.41-8.12-10.74-9.97-17.16-.47-2.27-.75-4.57-.93-6.88-.16-.84-.04-2.09,1.08-2.04.84.22,1.42.97,2.13,1.44,1.57,1.14,3.32,2.06,4.78,3.36,2.82,2.64,5.28,5.78,6.9,9.3,2.59,4.8,3.16,10.12,3.58,15.45,0,0,.01.02.02.02.04.07.08.14.12.21.25-2.41.7-4.82.72-7.23.13-6.96-2.2-13.73-1.66-20.68.23-3.38,1.71-6.57,3.66-9.29.44-.54.83-1.37,1.61-1.43,1.35.56,1.79,2.3,2.45,3.51,2.36,4.78,3,10.42,2.38,15.68-.74,4.27-1.98,8.41-3.34,12.51,1.47-2.67,3.09-5.25,4.77-7.79,3.13-4.34,4.83-10.05,9.48-13.06,1.64-1,3.65-.86,5.41-1.58.95.08.55,1.67.62,2.34.49,6.82-4.73,11.7-9.36,15.95-2.91,2.88-5.96,5.91-8.42,9.29,1.16-.55,2.37-1,3.57-1.39.2-.04.47-.09.64-.02-.06.07-.13.13-.2.19.04.05.05.12.06.18.02-.02.04-.04.06-.05.02.02,0,.02,0,.04h0s0,.01,0,.01h0c.09.28.16.55.22.82.8-.62,1.61-1.22,2.46-1.78,2.16-1.27,3.96-3.47,6.41-4.12,1.43.06,1.77,1.5,1.59,2.69-.96,4.09-4.45,6.89-7.88,8.99-1.49.97-3.02,1.95-4.46,3.03.73-.09,1.46-.14,2.18-.2,1.56.02,3.11.42,4.66.33.35-.02.76.01,1.07.14.23-.05.47-.03.68.05-.01.02-.02.03-.04.04.03,0,.06,0,.09,0-.2.22-.48.4-.79.54-.38.51-1.11.71-1.68.95-.46.13-.91.33-1.38.46h0c-4.43,1.87-8.42,4.87-10.45,9.34-.31,1.14.04,2.3.29,3.42,0,0,0,.01,0,.02,1.3,4.56,2.42,9.17,3.66,13.75,1.34,5.49,4.51,10.16,7.81,14.65.06.09.12.18.18.27.33-.98.3-2.07.42-3.12.59-4.91-.43-9.79-.78-14.66-.58-6.71-.82-13.72,1.18-20.22,1.46-4.71,4.43-8.81,6.97-12.96.96-1.7,1.85-3.5,2.66-5.24.09-.36.52-1.11.87-.61.23,6.59,2.66,12.72,4.18,19.06.6,6.4.55,13.09-1.7,19.19-1.39,3.3-3.59,6.07-5.82,8.82-1.77,2.15-3.6,4.21-5.68,6.04-.78.84-.83,2.15-1.7,2.88-.07.38-.14.87-.31,1.27,3.68,5.5,8.41,10.24,12.37,15.48,3.54,4.18,6.5,8.78,9.47,13.36,1.31,1.93,2.59,3.89,3.72,5.93-.29-1.99-.31-4.03,0-6.05.5-3.26,1.88-6.3,2.91-9.41,1.15-3.76,1.68-7.64,2.27-11.51.29-2.96.94-5.95.44-8.9-.95-4.48.71-2.17,2.39-.12,2.21,2.93,3.71,6.3,5.59,9.44,2.61,4.28,4.22,9.12,3.89,14.18-.35,5.35-3.31,10.56-8.12,13.07-1.37.69-3.07.73-4.24,1.79-.7.68-1.32,1.49-1.76,2.34-.17.36-.31.75-.55,1.06,3.29,7.83,3.66,16.48,3.05,24.88-.53,7.19-1.43,14.36-3.32,21.33-2.11,6.56-5.48,12.68-7.71,19.18-.22.8-.44,1.61-.65,2.41-.09,1.38-.26,2.75-.52,4.13-.13,1.07-.32,2.14-.53,3.2.04-.1.07-.2.1-.29,2.73-7.14,6.61-13.79,10.98-20.04,2.11-4.11,5.06-7.67,7.2-11.74,4.23-7.49,6.99-15.58,9.43-23.8,3.16-10.36,4.75-21.19,4.36-32.02-.96-8.73-3.2-17.15-5.07-25.69-.41-2.79-.81-5.58-1.18-8.38-.08-.08-.16-.17-.24-.25-2.16,1.16-8.46-9.27-9.64-11.16-3.88-6.36-6.62-13.37-8.6-20.53-1.07-3.48-1.57-7.13-2.92-10.52-3.05-7.56-5.63-15.68-11.49-21.57-.8-1.36,1.94-.24,2.48-.21,2.97.78,5.72,2.14,8.39,3.64,2.85,1.62,5.85,3.21,8.12,5.63,3.23,3.84,5.2,8.65,6.7,13.4,2.03,5.97,2.14,12.35,1.84,18.59-.05,2.23-.43,4.45-.41,6.66.12,1.53.46,3.14.68,4.65.67,3.3,2.52,6.25,4.02,9.22.25.5.59.95.95,1.38-.7-5.53-1.25-11.09-1.46-16.64,0-8.97,1.92-17.83,4.95-26.25.61-1.78,1.26-3.55,1.91-5.32.1-.29.2-.59.31-.87-1.16-.73-2.43-1.37-3.39-2.34-1.25-1.68-2.38-3.48-3.48-5.27-1.64-3.05-4.11-5.46-6.53-7.91-.07-.1-.13-.19-.18-.26-.17-.02-.35-.03-.52-.04h0s0,0,0,0c0,0,0,0,0,0,0,0-.02,0-.02,0,.21-.32.77-.38,1.14-.35,1.81.14,3.62.46,5.34,1.05-1.61-1.72-3.31-3.37-5-5.01-2.59-2.61-6.34-3.56-8.98-6.12-2.12-2.02-3.87-4.48-5.29-7.02-.66-1.34,1.13-1.84,2.15-1.81,1.83.25,3.62.75,5.44,1.1,6.57,2.04,11.95,7.03,15.39,12.89.99,1.52,1.93,3.12,2.77,4.78-.16-1-.25-2.02-.22-3.05,0-.05,0-.1,0-.14-2.43-6.31-6.05-12.21-9.09-18.22-1.95-4.49-2.71-9.56-1.79-14.39.38-1.24.68-2.64,1.51-3.66.47-.36.98.2,1.36.46,4.62,3.86,8.32,8.89,10.91,14.31,2,5.41,3.12,11.24,3.31,17.06h0c.43.67.81,1.36,1.13,2.09.07.16.14.33.21.49.21-3.27.5-6.54,1.41-9.69,1.29-5.08,4.61-9.22,7.03-13.77,1.41-2.67,2.76-5.38,4.37-7.93.65-.93,1.32-1.97,2.45-2.34.93-.5,1.4.6,1.66,1.32,1.52,3.31.89,6.88.42,10.34-.61,3.96-1.4,7.93-2.8,11.71-1.28,3.62-3.04,7.02-5.02,10.3.71-.78,1.47-1.52,2.29-2.21,2.3-2.11,5.21-3.31,8.04-4.56,5.02-2.37,10.27-4.41,15.87-4.77,1.3.16-.52,1.75-.79,2.25-1.7,2.14-3.37,4.52-5.98,5.59-8.28,3.89-16.29,8.48-23.08,14.66-.66.52-1.29,1.08-1.9,1.67,1.81-.75,3.79-1.24,5.64-1.8,1.76-.51,3.16-1.77,4.9-2.31.26-.08.65-.21.75.13.07.24-.12.45-.22.6-.91,1.55-1.18,3.38-2.08,4.93-1.77,3.22-5.3,5.26-8.75,6.27-2.75.91-5.85.4-8.51,1.48-.02.02-.04.04-.06.07l-.06.16s-.01,0-.01-.01c0-.03,0-.06,0-.09-.23.24-.46.48-.69.71-.27.82-.61,1.63-.82,2.45-.84,2.59-1.68,5.18-2.46,7.8-1.99,6.63-3.11,13.53-3.25,20.46.09,5.62.71,11.23,1.43,16.81.02-.13.03-.26.05-.39.66-3.09,2.01-6,3.11-8.96,5.52-14.4,19.27-23.79,24.94-38.05.32-.77.33-1.7.64-2.42.09-.07.22-.08.31,0,.15.13.14.34.12.52-.14,1.52-.23,3.02-.2,4.55-.29,5.79.62,11.56.21,17.33-.78,10.45-8.19,18.68-15.34,25.67-4.16,3.76-9.89,7.2-10.71,13.21-.39,1.08-.11,2.36-.67,3.3,1.47,6.5,2.92,13.01,3.73,19.64.33,6.03-.03,12.06-.93,18.02.07-.16.16-.31.24-.46,4.43-7.75,12.57-13.14,15.79-21.57.06-.12.11-.28.22-.37.23-.15.38.19.29.38-1.05,2.77.23,5.84.31,8.71.34,5.69.54,11.67-2.05,16.93-2.13,4.18-4.91,8.16-8.53,11.17-2.52,2.04-5.63,3.22-8.27,5.1-1.57,1.05-2.64,2.62-3.67,4.16-.41.53-.7,1.3-1.22,1.73-1.52,4.19-3.28,8.29-5.43,12.22-8.7,16.26-23.27,30.52-21.87,50.14.35-2.41,1.27-5.66,1.37-6.29,2.29-7.85,4.49-16.06,10.2-22.21,6.99-8.61,17.06-13.53,26.24-19.37,2.78-1.53,4.89-3.91,7.33-5.85.15-.14.41-.07.46.13,1.3,4.19-.1,8.48-1.78,12.35-2.1,5.33-4.73,10.56-8.24,15.11-6.38,6.9-15.5,10.47-23.53,15.04-2.16,1.03-4,2.52-5.71,4.17-1.47,1.37-3.04,2.73-4.02,4.5-1.31,1.93-.87,4.26-1.26,6.38,0,0,0,0-.01,0-.14-.45-.24-.91-.3-1.36-.27.08-.56.2-.82.05-.07-.09-.14-.18-.2-.27,0,.36,0,.71-.02,1.06,1.29.61,2.6,1.17,3.95,1.51,10.93,2.74,22.23.96,33.09-1.11,10.72-2.4,20.97-6.48,31.73-8.68,21.71-3.94,43.21-9.84,65.25-11.54,14.22-1.53,28.8-1.92,42.85.94-1.34-.5-2.69-.98-4.04-1.47-1.86-.67-3.7-1.37-5.56-2.04-1.43-.52-2.86-1.01-4.31-1.49-1.39-.46-2.81-.87-4.22-1.27,0,0-.02,0-.03,0-.03,0-.06-.02-.09-.02-4.2-1.16-8.45-2.14-12.66-3.28-2.14-.57-4.28-1.16-6.43-1.71-1.39-.36-2.79-.69-4.18-1.05-1.5-.38-3-.77-4.5-1.12-3.13-.73-6.29-1.3-9.46-1.8-3-.47-6.02-.85-9.05-1.13-1.33-.12-2.67-.23-4-.37-1.43-.14-2.86-.32-4.29-.52-1.43-.2-2.86-.43-4.29-.65-1.71-.26-3.43-.46-5.16-.62-1.32-.12-2.64-.23-3.95-.4-1.32-.16-2.63-.35-3.95-.56-2.86-.45-5.72-.95-8.55-1.57-1.32-.29-2.64-.61-3.93-1-.95-.29-1.88-.62-2.8-.98-.86-.34-1.72-.7-2.55-1.1-.8-.39-1.55-.88-2.24-1.44-1.63-1.31-2.78-3.11-3.65-4.99-.44-.95-.79-1.92-1.1-2.91-.31-.97-.59-1.94-.86-2.92-.55-2-.97-4.02-1.38-6.05-.44-2.18-.91-4.36-1.39-6.53-.58-2.61-1.07-5.24-1.43-7.9-.39-2.96-.65-5.93-.91-8.9-.23-2.68-.43-5.38-.46-8.07-.03-2.82,0-5.64.08-8.46.04-1.44.09-2.88.18-4.31.1-1.57.24-3.14.39-4.71.14-1.48.3-2.96.42-4.45.16-1.86.29-3.71.41-5.58.07-1.18.14-2.36.18-3.54.04-1.23.05-2.47.07-3.7.05-2.71.15-5.43.35-8.14.11-1.52.24-3.04.39-4.56.14-1.38.31-2.76.45-4.14.25-2.45.52-4.89.88-7.32.21-1.45.45-2.89.72-4.32.25-1.26.52-2.51.82-3.75.31-1.32.63-2.64.93-3.96.3-1.39.61-2.78.89-4.17.32-1.6.64-3.2.96-4.8.3-1.46.59-2.91.88-4.38.24-1.24.47-2.49.76-3.72.19-.79.38-1.59.71-2.32.07-.17.17-.33.29-.48.11-.14.27-.29.45-.35.17-.06.32-.07.5-.05.22.04.4.19.55.34.22.23.35.57.46.86.12.3.23.61.34.91.28.77.53,1.55.79,2.33.32.98.64,1.95.97,2.93,1.65,5,3.38,9.97,5.12,14.93.39,1.11.77,2.21,1.14,3.33.39,1.18.74,2.38,1.09,3.57.43,1.45.84,2.91,1.26,4.36.38,1.32.74,2.64,1.08,3.96.31,1.2.59,2.41.88,3.61.35,1.47.69,2.94,1.02,4.42.6,2.7,1.17,5.4,1.85,8.08.41,1.61.87,3.2,1.32,4.79.52,1.85,1.07,3.68,1.63,5.52,0,.01,0,.03.01.04s0,.03.01.04c.54,1.79,1.11,3.57,1.66,5.35.55,1.74,1.08,3.48,1.64,5.21.56,1.73,1.14,3.46,1.75,5.18.6,1.69,1.23,3.36,1.95,5,.02.03.03.06.04.09.66,1.49,1.35,2.97,2.06,4.43.77,1.6,1.55,3.19,2.46,4.71l.04.06c.99,1.61,2.04,3.18,3.21,4.67t0,0s.01.02.02.02c.63.77,1.29,1.51,1.97,2.24.67.73,1.34,1.45,2.01,2.18,1.45,1.55,2.96,3.05,4.5,4.51,1.64,1.55,3.32,3.05,5.02,4.53,2.02,1.76,4.07,3.5,6.19,5.15,2.32,1.81,4.71,3.52,7.04,5.31,1.18.91,2.34,1.84,3.51,2.76.98.77,1.96,1.52,2.95,2.28,2.37,1.81,4.79,3.56,7.16,5.37,1.23.95,2.44,1.91,3.67,2.87,1.28.99,2.57,1.96,3.9,2.89.01,0,.03.02.04.03,0,0,.02.01.02.02,1.12.78,2.26,1.54,3.41,2.3,1.19.79,2.36,1.59,3.54,2.4,2.56,1.75,5.13,3.5,7.69,5.27,1.07.73,2.13,1.47,3.2,2.2,1.25.85,2.49,1.71,3.75,2.54,2.25,1.48,4.53,2.92,6.8,4.37,1.17.75,2.33,1.5,3.51,2.23,1.23.76,2.47,1.49,3.73,2.2,1.29.71,2.57,1.42,3.86,2.12,1.14.62,2.3,1.21,3.45,1.82,1.61.85,3.18,1.74,4.76,2.64,1.54.89,3.09,1.75,4.68,2.52.77.36,1.55.71,2.33,1.03.64.26,1.29.5,1.94.73,1.34.48,2.69.92,4.04,1.36,1.47.48,2.95.95,4.43,1.39,1.3.39,2.6.75,3.9,1.11,2.21.62,4.45,1.2,6.68,1.77,2.28.58,4.55,1.17,6.84,1.73,2.34.57,4.68,1.16,7.05,1.65,1.21.25,2.43.47,3.65.67,1.23.2,2.45.39,3.69.51,1.37.12,2.75.2,4.13.24,1.11.04,2.22.03,3.33-.05.02,0,.04,0,.06,0,.02,0,.03,0,.05,0,.74-.07,1.46-.18,2.18-.38.26-.08.51-.17.76-.28.29-.14.57-.31.84-.49.23-.17.45-.34.66-.53.18-.18.35-.36.51-.56.14-.19.28-.39.41-.59.19-.32.36-.65.51-.98.33-.82.59-1.75,1.31-2.31.29-.23.65-.36.99-.48.36-.13.72-.27,1.07-.43.24-.12.48-.25.71-.4.1-.07.2-.14.29-.23.05-.05.09-.09.13-.14.12-.15.24-.3.39-.43.18-.17.39-.3.6-.43.54-.31,1.15-.48,1.75-.63.86-.22,1.73-.36,2.59-.59.24-.07.48-.15.71-.26.07-.04.14-.07.2-.11.06-.04.11-.09.17-.14.04-.04.07-.08.11-.12l.08-.12s.04-.07.05-.11c0-.02.01-.03.02-.05,0-.04.02-.07.03-.11v-.03s0,0,0-.01c0,0,0,0,0-.01l-.06-.08s-.04-.04-.05-.06c-.1-.09-.21-.17-.32-.25-.02-.01-.04-.03-.05-.04,0,0-.01,0-.02-.01-.38-.26-.78-.52-1.04-.91-.14-.22-.23-.47-.25-.73-.02-.32.04-.61.18-.9.09-.2.23-.37.37-.54.12-.16.26-.3.4-.45.27-.28.56-.55.81-.86.03-.04.06-.08.09-.12.01-.02.02-.04.03-.05v-.02s0,0,0-.01,0,0,0-.01c0-.02,0-.03-.02-.04l-.05-.09s-.04-.06-.06-.09c-.06-.07-.12-.13-.18-.19-.16-.14-.33-.28-.51-.41-.36-.25-.75-.46-1.14-.66-.43-.2-.86-.36-1.3-.48-.36-.09-.71-.15-1.08-.19-.28-.02-.55-.02-.84,0-.45.05-.88.14-1.32.26-.8.24-1.58.55-2.34.91-.59.28-1.17.58-1.77.86-.62.29-1.25.54-1.9.74-1.25.39-2.54.6-3.82.85-1.32.25-2.63.55-3.97.65-1.11.08-2.32,0-3.26-.67-.27-.19-.5-.42-.68-.7-.1-.16-.19-.33-.23-.51-.04-.18-.05-.36-.04-.55.02-.25.14-.49.27-.7.13-.22.29-.43.45-.63.35-.41.8-.74,1.24-1.05.58-.4,1.18-.77,1.77-1.16,0,0,.02-.01.02-.02.19-.13.37-.27.54-.43.07-.08.15-.16.21-.24.07-.09.13-.18.19-.28.07-.12.13-.24.19-.37.09-.19.16-.39.22-.59.06-.21.12-.41.16-.62.02-.11.03-.22.04-.33,0-.09,0-.17,0-.26-.01-.14-.03-.29-.05-.43,0,0,0,0,0-.01-.06-.34-.14-.66-.25-.98-.09-.3-.2-.59-.32-.87-.11-.22-.21-.44-.34-.65,0,0-.01-.02-.02-.03-.43-.7-.95-1.36-1.43-2.03-.43-.59-.84-1.22-1.07-1.92-.12-.37-.18-.75-.18-1.14,0-.41.07-.82.12-1.22.11-.73.23-1.45.29-2.19v-.03h0c.01-.34.01-.66,0-.99v-.02s0-.05,0-.07v.04c-.06-.93-.19-1.86-.35-2.78l-.02-.13c-.18-1.01-.4-2.01-.69-2.99-.13-.42-.28-.83-.45-1.23-.14-.3-.29-.58-.45-.86,0,0,0,0,0-.01s0,0,0-.01c0,0-.02-.02-.02-.03-.01-.02-.02-.04-.03-.05-.29-.46-.61-.92-.95-1.35-.26-.32-.54-.63-.84-.92-.39-.36-.8-.71-1.21-1.05-.28-.24-.55-.49-.85-.71-.06-.04-.12-.07-.18-.11,0,0-.01,0-.02,0,0,0-.01.02-.02.02-.05.06-.09.12-.13.18-.09.15-.17.3-.24.46-.21.5-.39,1.01-.61,1.51-.19.43-.46.8-.88,1.02-.38.2-.8.24-1.22.26-.43.02-.85.02-1.28.05-.28.03-.55.07-.82.14-.14.04-.29.1-.42.16-.11.05-.21.12-.32.19-.05.04-.11.08-.16.12-.06.06-.12.12-.18.19-.05.07-.11.15-.16.23-.07.12-.14.25-.2.38-.16.38-.28.77-.4,1.16-.23.75-.46,1.48-.78,2.2-.22.48-.47.95-.73,1.4-.57.96-1.22,1.89-2,2.69-.4.42-.85.79-1.32,1.12-.44.31-.89.59-1.39.79-.67.27-1.43.3-2.14.29-.47,0-.93-.05-1.4-.11-.73-.09-1.45-.21-2.17-.37-.69-.15-1.38-.32-2.07-.4-.39-.04-.79-.04-1.18,0,0,0-.02,0-.02,0-.43.04-.85.12-1.26.23-.88.25-1.73.61-2.58.94-.91.34-1.84.62-2.79.82-1,.22-2.02.39-3.04.47-.59.05-1.2.05-1.78-.08-.25-.06-.5-.15-.73-.28s-.43-.3-.64-.45c-.94-.68-1.89-1.36-2.82-2.05-1.12-.84-2.23-1.7-3.33-2.57-1.47-1.16-2.92-2.35-4.36-3.54-1.53-1.26-3.11-2.45-4.67-3.67-1.76-1.38-3.47-2.81-5.18-4.26-2.04-1.74-4.08-3.48-6.1-5.24-1-.87-1.99-1.75-2.98-2.62-1.09-.96-2.2-1.9-3.29-2.86-1.08-.95-2.15-1.92-3.22-2.88-1.03-.92-2.06-1.84-3.08-2.76-1.97-1.78-3.9-3.6-5.79-5.46-2-1.98-3.93-4.02-5.85-6.07-2.04-2.19-4.07-4.39-6.04-6.64-1.75-2.01-3.5-4.03-5.27-6.01-1.42-1.59-2.89-3.14-4.35-4.69-1.49-1.57-2.98-3.15-4.49-4.71-2.11-2.18-4.21-4.36-6.41-6.44-1.27-1.19-2.57-2.32-3.92-3.41-1.04-.84-2.07-1.7-2.98-2.68-.19-.21-.38-.42-.55-.64-.16-.21-.28-.46-.39-.7-.26-.58-.47-1.18-.67-1.78-.41-1.22-.78-2.45-1.11-3.69-.46-1.77-.84-3.57-1.15-5.37-.34-1.9-.63-3.8-.96-5.7-.39-2.2-.81-4.39-1.18-6.6-.38-2.29-.75-4.58-1.15-6.86-.24-1.32-.51-2.64-.81-3.95-.33-1.43-.68-2.86-1.01-4.29-.59-2.49-1.14-4.99-1.71-7.48-.32-1.4-.64-2.8-.92-4.21-.27-1.33-.52-2.66-.77-4-.47-2.5-.98-4.99-1.48-7.48-.32-1.61-.64-3.23-.92-4.86-.3-1.77-.55-3.54-.86-5.31-.23-1.28-.51-2.55-.8-3.82-.28-1.24-.54-2.48-.8-3.73-.27-1.32-.54-2.65-.83-3.97-.32-1.43-.67-2.85-1.02-4.27-.65-2.59-1.33-5.17-2-7.75-.64-2.49-1.32-4.98-2.06-7.44,0-.02-.01-.04-.02-.07-.6-1.95-1.25-3.89-2.08-5.77-.55-1.2-1.14-2.39-1.74-3.56-.72-1.41-1.48-2.8-2.3-4.16-.77-1.27-1.56-2.53-2.37-3.77-.73-1.13-1.5-2.23-2.34-3.29-.64-.79-1.3-1.56-1.98-2.32-.64-.71-1.3-1.42-2-2.09-1-.93-2.07-1.78-3.18-2.56-.02-.01-.03-.02-.04-.03-1.35-.92-2.78-1.72-4.25-2.43-1.4-.65-2.84-1.18-4.33-1.6-.43-.12-.86-.23-1.29-.32-.47.07-.96.05-1.42-.08-.77-.1-1.56-.31-2.32-.61h0c-.48-.07-.95-.13-1.43-.19-1.16-.14-2.32-.26-3.48-.39-1.17-.13-2.34-.28-3.51-.39h.04s-.07,0-.11,0c-1.89-.16-3.8-.25-5.7-.36-1.95-.11-3.89-.28-5.82-.57-1.01-.15-2.01-.34-3-.55-1.05-.23-2.08-.52-3.11-.82-2.38-.71-4.68-1.67-6.89-2.82-1.32-.7-2.63-1.43-3.89-2.23-1.03-.66-2-1.39-2.94-2.18-.85-.71-1.66-1.46-2.43-2.26-.79-.82-1.5-1.71-2.18-2.63-2.86-3.92-4.01-8.77-4.63-13.5-.33-2.53-.52-5.06-.6-7.61-.07-2.16-.14-4.32-.18-6.48-.04-2.34-.06-4.68-.02-7.02.02-.99.05-1.97.13-2.96.03-.39.07-.79.11-1.18.04-.36.08-.71.18-1.06.09-.31.21-.64.41-.89.05-.06.11-.1.19-.11.01,0,.02.02,0,.02-.01,0-.02.02-.04.03,0,0-.01,0-.02.02,0,0-.01.02-.02.02h0v.02s0,0,0,0c0,0,0,.01,0,.02,0,.02-.01.03-.02.05,0,.03,0,.05-.01.09-.02.45,0,.91-.04,1.36-.05.59-.09,1.18-.13,1.77-.09,1.49-.09,2.97-.08,4.46.01,1.58.02,3.16.05,4.73.04,1.45.09,2.89.14,4.33.05,1.52.09,3.04.18,4.56,0,.02,0,.04,0,.06.08,1.29.18,2.58.34,3.87.16,1.26.36,2.52.58,3.77.28,1.51.62,3,1.06,4.47.25.78.54,1.55.86,2.3.4.89.84,1.75,1.34,2.59.44.72.92,1.41,1.43,2.09.67.84,1.4,1.62,2.18,2.37,1.12,1.04,2.31,2.02,3.57,2.91,0,0,0,0,0,0,.99.68,2.02,1.3,3.07,1.88-.69-1.79.81-2.87,2.29-3.94-.37-1.32-.64-2.94.6-3.9.48-.52,1.23-.94,1.36-1.68-.11-1.2-1.44-1.77-1.86-2.84-.66-1.21.14-2.36.69-3.42-.88-1.03-2.01-2.06-1.61-3.57.02-.16.06-.32.09-.48-.05.07-.1.14-.15.22-.52-1.41-2.11-2.18-3.17-3.17-3.45-2.57-3.9-6.38-.82-9.46,1.19-1.58,3.51-3.16,3-5.38-1.88-3.62-4.66-6.7-2.25-10.94,2.12-4.11,8.1-5.89,8.27-11.05-.03-.77-.45-1.45-.92-2.04-2.09-2.39-5.25-4.87-4.66-8.43.48-3.04,3.86-4.95,3.95-8.08-.42-1.69-2.41-2.61-3.63-3.59-.86-.5-1.56-.99-2.12-1.48-.07,1.43-.3,2.85-.62,4.25.06,2.48-.16,4.99-.48,7.45.11,3.45-.5,6.89-1.79,10.1-.78,1.54-1.71,3.01-2.75,4.4.25.81.55,1.61.73,2.43,1.14,3.82-.18,7.67-1.7,11.16-.96,3.08.36,6.16.23,9.29-.05,4.55-.01,9.23.26,13.71-.98-5.11-1.66-10.25-1.65-15.45-.12-2.06-.77-4.1-.47-6.18.16-2.04,1.2-3.82,1.83-5.72.52-1.73.72-3.73.42-5.48-.19-.84-.43-1.66-.65-2.48-1.8,2.19-3.85,4.18-5.97,5.96-.55.61-1.11,1.21-1.68,1.81-.17.18-.34.36-.52.54-2.48,2.57-5.1,4.98-8.03,7.04-1.36,1.01-2.68,2.08-4.17,2.88-2.19.88-4.72,1.07-7.06.89-.05,0-.11.01-.16.01-.11,0-.21-.02-.32-.05-5.26-2.55-10.34-5.63-14.85-9.38,0,.01,0,.02,0,.04-.03-.03-.06-.07-.09-.1-.02-.02-.04-.04-.06-.06-.07-.07-.14-.13-.21-.2-.04-.04-.07-.07-.12-.09,0,0-.02,0-.03-.01-.2-.17-.4-.34-.59-.51,0,.13,0,.27.01.4-.02.53.04,1.09,0,1.63,0,.11.01.22.01.32,0,.02,0,.04.01.05,0,.02,0,.04.01.06,0,.02,0,.04,0,.06,0,.01,0,.03,0,.04-.01,0-.02,0-.03,0,0,.1,0,.2-.01.3,0,0,0,.01,0,.02.18,2.96-.23,6.09-.38,8.96-.37,5.96.2,12.13-2.04,17.81-2.47,6.75-6.99,13.22-13.8,16.07-4.07,1.8-8.27,3.32-12.57,4.5-1.82.45-3.67.85-5.52,1.22-.19,0-.38.03-.57.07-.18.04-.36.09-.54.16-.17.06-.33.13-.49.21-.01-.04-.03-.07-.04-.1-5,.98-10.03,1.91-14.85,3.53-5.93,1.89-11.36,5.47-16.05,9.43-7.44,7.63-11.29,18.2-14.69,27.99-1.48,5.2-2.66,10.49-3.07,15.87-.95,4.38-2.57,8.59-3.98,12.8-1.65,7.55-3.83,14.97-5.32,22.55-1.29,7.57-3.76,15.12-5.05,22.64-.7,3.93-1.34,7.87-1.75,11.84-.52,6.23-.98,12.81-5.09,17.87-5.69,7.91-13.29,13.96-20.6,20.27-3.62,3.25-7.53,6.17-11.14,9.43-3.78,3.49-7.25,7.34-10.84,11.04-10.66,10.71-20.62,22.25-32.78,31.32-3.27,2.12-5.77,6.25-9.98,4.4-1.71-.52-3.42-.99-5.15-1.35-.03-.07-.08-.13-.14-.16l-.06-.02c.12-.15.26-.3.38-.46.09-.12.18-.23.27-.35.05-.06.1-.13.15-.2.11-.16.22-.32.33-.48,8.36,2.27,5.83,3.1,13.41-3.1,10.12-7.82,18.78-17.25,27.61-26.45,5.59-5.48,10.64-11.5,16.43-16.78,5.82-4.83,11.56-9.76,17.29-14.71,3.13-2.54,6.09-5.19,8.68-8.27,8.2-8.45,8.73-12.17,9.52-23.48.96-8.97,2.84-17.8,5.16-26.51,2.03-9.77,4.29-19.49,6.54-29.21,1.07-3.7,2.67-7.22,3.59-10.97.8-2.14.64-4.43,1.08-6.64,1.13-6.8,2.96-13.46,5.61-19.84,3.3-8.04,7.09-16.41,13.82-22.17,1.91-1.43,3.89-2.82,5.94-4.08.66-.85,1.32-1.71,1.81-2.68.04-.03.08-.1.14-.2,0,0,0,0,0,0,.34-.87.84-1.71,1.18-2.62.13-.86.43-1.7.59-2.56.42-2.02-.19-4-.39-5.99-.14-1.67.45-3.36,1.57-4.6.81-1.06,2.16-1.97,2.36-3.35-2.16-7.87.33-8.71,5.2-14.07.86-.98,1.36-2.23.67-3.45-2.84-4.73-2.9-9.23.65-13.54.68-1.04,1.17-2.23.86-3.48-1.86-5.68-1.41-8.8,2.9-13.1.71-.83,1.17-1.86.92-2.96-1.2-4.32-3.25-8.34-.39-12.57,1.12-1.93,2.74-3.72,3.22-5.95.49-2.27-.7-4.4-1.23-6.55-1.36-5.35,3.86-9.44,3.82-14.68-.53-7.88-4.05-10.1,3.6-16.39.48-.56,1.28-.96.9-1.67-3.71-5.77,2.2-5.56,4.26-9.42.95-3.23.31-7.59,4-9.26,1.29-.62,2.82-.75,3.92-1.75h.02c.48-.5-.12-1.2-.13-1.78-.85-3.82,3.77-5.04,6.72-4.55,2.36.35,4.66.34,6.99.79,1.73.29,3.1,1.41,4.72,1.97,1.33.21,2.5.09,3.58-.04,2.28-.27,4.17-.54,6.27,2.45,1.02.67,2.3.27,3.43.63,1.45.24,2.46,1.55,2.5,2.9.09.04.17.09.25.14.19.13.32.32.43.53h0c.08,0,.09.06.07.14,0,.01.01.02.02.03.05.13.09.26.14.38,2.13.76,3.93,2.93,3.3,5.29-.26,1.21-1.51,1.95-1.83,3.07.58,1.08,1.7,1.79,2.25,2.91,1.67,3.16-.97,6.45-3.38,8.36,1.73.41,3.19,2.21,2.93,4.02,0,.1,0,.21-.01.31h0c1.01,3.57,5.76,3.02,10.27,2.48,2.23-.27,4.41-.54,6.03-.31,3.54.19,3.64,4.08,4.46,6.68,1.21,2.38,4.35,2.3,6.63,2.78,3.6.4,6.85,3.12,6.07,7.02-.19,2.12-1.19,4.12-1.44,6.22.11.57.2,1.14.26,1.7.55.9,1.67,1.55,2.4,2.13,1.4.97,2.86,1.9,4.04,3.16,3.38,3.84-1.41,7.68-2.81,11.16-.2,3.11,3.15,4.8,4.66,7.12,2.07,2.9.54,6.79-1.59,9.21-2.95,3.26-9.18,6.55-5.45,11.61,1.43,2,2.82,4.48,1.6,6.94-.95,2.97-6.48,5.48-3.91,8.83,1.25,1.58,3.33,2.58,4.54,4.19.06.12.11.25.16.38.01.02.02.05.03.07h0l.03.05c.03.07.05.15.08.22h0s0,0,0,0c.02.06.04.12.05.18.14.76-.19,1.69.01,2.43,1,1.15,2.35,2.21,1.41,3.88-.13.44-.72.83-.56,1.3.71,1.05,1.92,1.8,2.12,3.16.29,1.21-.27,2.45-1.16,3.27-.33.43-1.13.75-.96,1.39.66,1.86.14,3.21-1.61,4.12-.65.39-.95,1.15-1.41,1.73.8.43,1.6.83,2.41,1.21.54-.81,1.22-1.49,2.09-2,.82-.94,4.72-1.5,3.84-3.02-4.74-8.96,6.77-6.95,1.44-16.54-1-1.86-2.37-3.71-2.35-5.92.17-4.38,6.23-4.21,7.81-7.77,1.42-3.32-7.65-7.36-6.41-13.21.59-4.07,4.57-5.88,7.12-8.57.91-.93.18-1.93-.45-2.78-3.07-3.59-6.67-7.82-4.79-12.86.73-2.5,1.89-5.02,1.73-7.68-1.51-7.93-7.65-8.69-1.89-18.18,5.14-7.85-9.13-3.96-6.46-15.09,3.72-11.51-12.39-7.11-12.52-17.37-.12-2.16.37-4.68-1.25-6.38-2.75-1.55-5.99-1.5-9.16-1.44-1.2.02-2.38.04-3.52-.03-5.7-.08-5.92-1.88-7.95-6.45-1.33-1.38-3.31-1.73-5.12-2.03-.67-.04-1.34-.02-1.98,0-2.51.09-4.68.18-5.05-3.4-5.55-.41-11.15,1.02-16.55,2.18-1.07.23-2.18.91-3.28.5-.13-.05-.37-.04-.45-.14.31-.05.37-.44.58-.66,2.48-2.24,6.22-2.4,9.36-3.06,3.27-.69,6.59-1.05,9.93-.92,1.59-.08,2.05,1.54,2.22,2.81.04.15.12.3.24.39v.02c.85.32,1.79.27,2.71.22.48-.03.96-.05,1.43-.03,12.89.85,3.88,8.91,15.18,8.46.91.05,1.89.04,2.9.03,3.6-.03,7.57-.06,10.05,2.45,2.04,2.6.95,6.01,1.69,8.97.85,2.43,3.47,3.38,5.63,4.34,3.38,1.5,7.54,3.77,7.23,8.04-.32,6.13-3.03,7.55,3.81,10.92,4.87,2.55,3.68,6.24,1.24,10.14-3.94,5.81,1.87,8.96,2.77,14.41,1.4,6.19-5.12,11.61.14,17.07,6.37,7.06,4.7,8.18-1.98,13.67-2.6,2.46-1.91,5.14.31,7.57,3.45,3.57,7.24,7.63,2.11,11.84-1.61,1.44-3.91,1.97-5.35,3.57-.08.14-.14.31-.16.47,0-.02.02-.05.02-.08-.01,1.74,1.33,3.16,2.04,4.67.88,1.61,1.49,3.37,1.71,5.2.39,2.24-.57,4.45-2.16,6.01-.64.7-1.46,1.32-1.74,2.27-.3,1.37.67,2.57,1.08,3.82.97,2.5-1.43,4.26-3.51,5-.85.33-1.55,1.04-2.36,1.43.36.15.73.29,1.09.42.97.36,1.97.66,2.96.94,1.24.34,2.49.63,3.76.86,1.21.21,2.43.36,3.65.48h-.03s.04,0,.05,0c1.9.16,3.8.24,5.71.31,1.94.07,3.87.2,5.8.39.95.1,1.91.21,2.87.31.09,0,.18.02.27.03-.98-1.19-1.43-2.7-.84-4.46.32-1.28,1.64-2.39,1.38-3.77-.81-1.92-2.58-3.24-3.66-5-3.12-4.61-.13-6.92,3.41-9.61.84-.78,1.52-1.85,1.04-3-.97-2.75-3.07-5.07-3.47-8.02-.83-4.39,2.98-6.93,4.5-10.51.96-4.48-4.22-7.76-4.08-12.28-.18-4.98,6.28-8.62,4.34-13.77-1.65-4.01-7.88-6.37-6.55-11.34.68-2.08,2.84-3.13,3.96-4.92.32-.49.49-1.1.37-1.68-1.11-3.9-4.57-6.36-6.66-9.68-3.94-5.2,1.09-8.53-1.77-13.04-1.5-2.34-3.46-4.37-4.74-6.85-1.87-3.11-.42-6.55,1.23-9.39.37-.83.62-1.86.43-2.72-1.02-4.78-8.86-6.91-12.72-9.25-7.97-3.42-3.34-8.64-8.75-10.48-4.23-1.39-9.12-.63-13-3.03-1.89-1.2-2.34-3.49-3.47-5.25-1.89-1.87-4.97-1.37-7.95-.88-1.74.29-3.44.58-4.84.4-4.11-.28-5.34-6.29-10.07-4.14-2.74.93-5.51,3.76-8.54,2.2-1.55-.82-2.82-2.32-4.7-2.18-3.17.7-5.33,3.78-6.77,6.48-.62,1.17-.66,3.06-2.1,3.56-.2.07-.16-.14-.21-.24,0-.03.03-.01.04,0,.18-4.7,3.55-9.2,7.67-11.33,1.81-.82,3.79-.05,5.3,1.04.85.57,1.77,1.28,2.85,1.17,4.89-1.19,8.5-5.7,13.13-.68,1.39,1.82,3.11,2.63,5.39,2.27,3.67-.22,8.18-2.01,11.36.54,1.8,1.7,1.85,4.84,4.41,5.86,4.64,2.2,11.3.26,14.92,4.42,1.08,1.44,1.19,3.35,1.71,5,1.25,2.56,4.27,3.5,6.64,4.77,5.13,2.47,13.72,5.94,10.84,13.11-.88,2.14-2.72,4.26-1.81,6.7,3.21,7,8.36,7.8,5.6,16.78-.19,2.34,1.52,4.23,2.84,5.97,2.65,3.41,7.8,8.04,4.36,12.49-.96,1.5-2.95,2.36-3.39,4.16-.01.18,0,.49.03.54.91,2.5,3.45,3.93,4.95,6.07,5.04,5.74.3,10.64-2.29,15.96-.94,4.48,3.96,7.66,4.05,12.04.45,4.18-3.93,6.52-4.65,10.3-.53,4.26,4.35,7.32,3.59,11.63-.55,3.21-4.23,4.18-5.7,6.73h.02s-.03.1-.04.16c-.02.13-.03.26-.04.39l.02-.04c.67,3.48,4.99,5.31,4.99,9.04.07,1.74-1.35,3.04-1.67,4.67-.01,1.43,1.33,2.24,2.46,2.82.86.41,1.82.7,2.69,1.09.6.12,1.2.26,1.8.41,1.66.43,3.28.96,4.84,1.66,1.47.66,2.89,1.45,4.23,2.34,1.34.89,2.62,1.85,3.8,2.93.74.68,1.43,1.41,2.12,2.15.72.78,1.41,1.59,2.08,2.42.8.99,1.55,2.03,2.25,3.09.82,1.24,1.61,2.5,2.39,3.77,1.37,2.22,2.57,4.54,3.71,6.88.53,1.09,1.03,2.2,1.47,3.33.48,1.24.89,2.5,1.28,3.77.77,2.49,1.45,5.01,2.11,7.53,1.33,5.11,2.71,10.21,3.78,15.39.25,1.23.5,2.45.77,3.68.25,1.17.53,2.34.78,3.52.57,2.68.9,5.41,1.37,8.12.46,2.52.99,5.03,1.48,7.54.51,2.59.98,5.19,1.51,7.78.53,2.62,1.17,5.22,1.76,7.83.62,2.72,1.27,5.44,1.9,8.16.53,2.28.93,4.59,1.32,6.89.38,2.23.73,4.46,1.13,6.68.3,1.69.63,3.38.92,5.07.27,1.55.51,3.11.78,4.66.43,2.35.94,4.67,1.64,6.95.15.48.3.95.46,1.43.2.6.4,1.2.66,1.78.05.11.1.22.16.32.04.06.08.12.12.17.33.4.7.77,1.08,1.14,1.08,1,2.27,1.88,3.4,2.82,1.46,1.21,2.84,2.5,4.2,3.81,1.61,1.56,3.17,3.17,4.73,4.78,2.15,2.22,4.27,4.46,6.39,6.71,3.86,4.11,7.44,8.47,11.25,12.62,1,1.09,2,2.16,3.01,3.24,1.1,1.18,2.2,2.36,3.33,3.52,1.67,1.71,3.36,3.38,5.1,5.02,2.05,1.93,4.15,3.79,6.25,5.67,1.08.96,2.15,1.94,3.24,2.89,1.08.95,2.18,1.9,3.26,2.85,3.84,3.37,7.66,6.76,11.61,10.01,1.62,1.33,3.29,2.6,4.95,3.88,1.52,1.18,2.98,2.42,4.47,3.64,1.29,1.05,2.59,2.07,3.9,3.08.9.7,1.82,1.38,2.75,2.04.41.29.81.59,1.22.88.16.12.33.23.49.36.12.09.23.19.35.28.04.02.07.04.1.06.05.02.11.04.17.06.11.03.23.04.34.06.32.02.63,0,.95-.02,1.3-.13,2.59-.38,3.84-.72.89-.26,1.75-.58,2.61-.94.89-.37,1.79-.72,2.74-.87.47-.07.95-.11,1.42-.1.46.02.92.08,1.38.17.86.17,1.7.41,2.56.55.46.08.92.14,1.38.18h.01c.54.05,1.08.07,1.62.03.23-.02.45-.05.67-.11.16-.05.31-.11.46-.18.25-.12.49-.27.72-.42.35-.25.69-.52,1.01-.81.28-.28.55-.58.81-.89,0,0,.01-.02.02-.02,0-.01.02-.02.03-.04.36-.46.69-.95,1-1.45.04-.06.08-.12.12-.19.25-.43.49-.87.7-1.33.37-.87.61-1.78.91-2.67.28-.81.69-1.6,1.38-2.14.58-.45,1.3-.66,2.03-.73.32-.03.65-.05.97-.05.09,0,.18,0,.27,0,.18,0,.36,0,.55,0h.02s.03,0,.04,0h-.02c.09,0,.18-.02.27-.04.05-.02.1-.03.14-.05.02-.01.04-.02.06-.04.02-.01.03-.02.04-.04,0-.01.02-.02.03-.03.01-.02.02-.04.04-.05.05-.08.09-.17.13-.26.25-.58.44-1.18.71-1.75.23-.47.55-1.02,1.05-1.22.53-.21,1.06.16,1.45.48.18.15.35.3.53.46.23.2.47.38.7.57.49.41.96.84,1.39,1.3.33.37.64.76.92,1.16.3.43.58.88.84,1.34.31.57.55,1.16.75,1.77.33.99.55,2,.75,3.02.16.8.29,1.61.38,2.42.11.99.18,1.98.09,2.97-.04.48-.11.95-.18,1.42-.07.48-.16.96-.2,1.45,0,.08,0,.16,0,.25,0,.05,0,.09.02.14l.04.14c.03.09.06.18.1.26.07.14.14.27.21.41.68,1.11,1.59,2.07,2.22,3.22.34.63.59,1.32.79,2.01.17.6.29,1.21.29,1.84,0,.61-.14,1.21-.33,1.8-.16.5-.38.98-.65,1.43-.32.52-.79.92-1.29,1.27-.57.41-1.18.77-1.77,1.17-.02.01-.04.03-.05.04-.28.2-.55.4-.81.64-.09.1-.19.2-.28.3l-.08.12s.08.07.12.1c.09.06.2.12.3.17.14.06.29.11.43.15.18.04.36.07.55.09.4.02.8,0,1.2-.03h.01c1.22-.13,2.43-.38,3.62-.62,1.15-.23,2.31-.42,3.44-.73.02,0,.04-.01.05-.02.02,0,.03,0,.04-.01.86-.25,1.68-.58,2.48-.96,1.09-.53,2.16-1.1,3.32-1.5.55-.19,1.12-.36,1.7-.46.62-.11,1.25-.11,1.88-.03,1.13.14,2.24.59,3.21,1.16.55.32,1.09.7,1.49,1.2.38.48.61,1.04.61,1.66,0,.32-.08.65-.22.95-.13.27-.32.52-.52.75-.32.37-.7.7-1.02,1.07.03.02.05.04.08.05.34.23.69.45.97.74.17.18.3.4.4.63.11.26.15.53.16.81.03.49-.14,1.02-.41,1.43-.27.41-.63.74-1.06.97-.62.33-1.34.47-2.02.62-.64.14-1.3.27-1.93.45-.3.09-.61.19-.9.32-.14.07-.29.15-.42.24-.05.04-.11.09-.16.13-.04.04-.08.09-.12.13-.09.11-.17.21-.26.31-.12.14-.28.26-.43.38-.27.19-.55.36-.85.51-.57.29-1.18.48-1.76.75-.07.03-.13.07-.19.11-.02.02-.05.04-.07.06-.02.02-.04.03-.05.05-.02.04-.05.07-.07.11-.07.12-.13.24-.19.37-.1.22-.18.45-.27.68-.13.37-.3.72-.48,1.07-.33.66-.75,1.29-1.27,1.82-.48.49-1.04.89-1.62,1.23-.61.36-1.29.57-1.98.73-.73.16-1.48.24-2.23.29-.69.05-1.38.07-2.07.07h-.3c-.99,0-1.98-.05-2.96-.11-1.02-.05-2.03-.13-3.04-.24-1.45-.16-2.89-.39-4.32-.64-1.24-.21-2.47-.45-3.7-.71-1.34-.28-2.67-.61-4-.91-1.31-.31-2.62-.63-3.92-.96-4.81-1.22-9.62-2.42-14.38-3.82-1.26-.37-2.51-.76-3.77-1.16-1.28-.41-2.56-.8-3.83-1.23-1.18-.4-2.36-.82-3.52-1.27-1.27-.5-2.5-1.08-3.71-1.7-1.24-.62-2.45-1.32-3.65-2.01-1.24-.71-2.49-1.42-3.76-2.09-1.15-.61-2.31-1.2-3.46-1.81-1.24-.66-2.47-1.34-3.71-2-1.21-.66-2.42-1.32-3.6-2.04-1.25-.75-2.48-1.53-3.71-2.31-1.13-.72-2.25-1.44-3.38-2.16-1.18-.75-2.36-1.49-3.52-2.25-1.19-.78-2.36-1.58-3.54-2.38-1.16-.79-2.32-1.57-3.47-2.37-2.43-1.68-4.87-3.34-7.31-5.01-1.1-.75-2.2-1.51-3.3-2.25-1.08-.73-2.18-1.45-3.26-2.18-1.2-.81-2.4-1.64-3.57-2.5-1.14-.85-2.27-1.73-3.39-2.62-1.07-.85-2.15-1.7-3.24-2.53-.96-.73-1.93-1.45-2.91-2.17-2.12-1.56-4.22-3.15-6.29-4.78-1.15-.91-2.29-1.83-3.45-2.72-1.22-.95-2.46-1.86-3.7-2.79-1.13-.84-2.26-1.68-3.37-2.55-1.05-.82-2.07-1.66-3.09-2.52-2.02-1.69-4.01-3.42-5.96-5.19-1.45-1.31-2.88-2.63-4.27-4.01-1.43-1.43-2.8-2.91-4.17-4.39-.57-.62-1.16-1.24-1.71-1.88-.86-.97-1.65-2.02-2.39-3.08-.86-1.23-1.67-2.5-2.42-3.8-.72-1.27-1.36-2.58-2-3.89-.62-1.26-1.21-2.53-1.79-3.8-.5-1.11-.99-2.21-1.43-3.34-.98-2.54-1.85-5.12-2.7-7.71-.81-2.5-1.6-5-2.39-7.51-.87-2.75-1.71-5.52-2.5-8.29-.7-2.43-1.38-4.86-1.97-7.32-.5-2.07-.93-4.16-1.39-6.24-.46-2.08-.96-4.15-1.46-6.22-.46-1.89-.95-3.77-1.48-5.64-.57-2.04-1.15-4.07-1.76-6.1,0-.01,0-.02-.01-.03,0-.03-.02-.06-.03-.09-.77-2.51-1.66-4.99-2.51-7.47-.86-2.5-1.7-5-2.54-7.5-.75-2.21-1.49-4.43-2.21-6.65-.29-.89-.57-1.77-.87-2.65-.18-.54-.37-1.07-.57-1.59-.18.6-.31,1.21-.44,1.82-.23,1.13-.43,2.26-.64,3.39-.5,2.69-1.07,5.36-1.59,8.04-.47,2.46-.99,4.92-1.55,7.37-.27,1.16-.55,2.31-.82,3.47-.23,1.04-.45,2.1-.65,3.15,0,.02,0,.03,0,.04-.56,3.18-.95,6.39-1.26,9.6-.16,1.69-.33,3.37-.51,5.05-.19,1.88-.35,3.75-.46,5.64-.14,2.45-.21,4.89-.27,7.34-.02,1.13-.04,2.26-.07,3.39-.03,1.14-.11,2.29-.18,3.43-.2,2.81-.39,5.61-.67,8.41-.12,1.18-.24,2.36-.34,3.54-.11,1.3-.2,2.61-.27,3.92v-.15c-.06,1.26-.1,2.51-.14,3.77-.04,1.32-.08,2.64-.09,3.96-.01,1.25,0,2.5.01,3.75,0,1.07.03,2.12.08,3.19h0s0,.08,0,.12c.08,1.32.17,2.65.28,3.98.11,1.37.25,2.73.37,4.1.23,2.82.55,5.62,1.03,8.4.65,3.61,1.57,7.17,2.27,10.77.16.8.3,1.61.46,2.42.16.8.34,1.6.53,2.4.37,1.53.8,3.03,1.26,4.53,0,0,0,.02,0,.03.01.04.02.07.03.1.23.75.49,1.5.8,2.23.3.67.63,1.33.99,1.97.25.41.52.79.8,1.17,0,0,0,.01.02.02.29.36.6.69.93,1.01.29.27.59.51.91.74.49.33,1,.62,1.54.88.95.44,1.92.83,2.89,1.2,1.1.42,2.21.79,3.35,1.1,2.93.79,5.93,1.3,8.93,1.8,2.76.46,5.54.87,8.32,1.14,1.55.14,3.09.25,4.64.42,1.41.16,2.81.38,4.21.6,2.47.4,4.96.7,7.45.93,1.11.1,2.21.18,3.32.27,1.25.11,2.5.24,3.74.38,2.55.29,5.09.67,7.61,1.1,1.39.24,2.78.48,4.17.76,1.38.28,2.76.58,4.14.91,1.51.35,3.01.75,4.52,1.12,1.33.33,2.66.65,4,.99,2.12.54,4.22,1.12,6.33,1.69,2.21.59,4.43,1.14,6.66,1.69,2.02.5,4.04,1.03,6.04,1.61.96.27,1.91.55,2.86.85.98.3,1.95.64,2.92.98,1.89.66,3.77,1.37,5.66,2.06,1.72.63,3.45,1.26,5.17,1.89,1.28.47,2.57.95,3.84,1.45.46.18.92.36,1.38.56.3.12.61.25.89.41.32.19.6.44.84.71.27.3.48.64.64,1.01,10.35,3.41,24.93,8.72,28.93,19.01,1.93,5.43,1.68,12.17-.63,17.44-1.91,3.07-4,6.14-6.65,8.63-3.76,3.26-8.62,4.56-12.79,7.15-3.07,1.77-5.66,4.14-8.81,5.73-10.44,4.57-22.24,4.04-33.4,4.97-10.55.5-21.13,1.71-31.7,1.36-3.12-.23-6.21-.8-9.09-2.04-.46-.22-.94-.41-1.43-.59.77.49,1.52.99,2.29,1.48,1.65,1.04,3.35,1.98,5.14,2.75,1,.42,2.02.79,3.04,1.13,1.09.36,2.19.68,3.29,1.03,1.4.45,2.81,1.02,3.99,1.93.42.32.82.7,1.14,1.13.29.4.45.89.46,1.39.02.46-.1.93-.29,1.35-.19.42-.49.8-.79,1.15-.79.89-1.71,1.61-2.75,2.18-.69.37-1.42.66-2.18.87-.81.23-1.66.34-2.5.42-.5.04-.99.06-1.49.06-1.07,0-2.14-.1-3.19-.27ZM392.38,498.16c2.51.2,5,.61,7.46,1.15,1.92.43,3.81.96,5.7,1.5,1.02.29,2.04.58,3.06.88.82.23,1.66.47,2.5.67,0,0,.01,0,.02,0h.01s.02,0,.02,0c1.07.24,2.16.41,3.26.47,1.09.04,2.17,0,3.24-.14-.02,0-.05,0-.07.02.71-.1,1.4-.25,2.09-.46,0,0,.01,0,.02,0,.45-.15.89-.34,1.32-.56h0s.05-.03.08-.04c0,0-.02,0-.03,0,.4-.22.79-.47,1.16-.75.36-.27.7-.57,1.02-.89.21-.21.41-.44.59-.68.07-.1.14-.21.2-.32,0,0,0,0,0,0h0c.03-.06.06-.13.09-.19.02-.05.04-.11.05-.17,0-.03.02-.06.02-.1,0-.02,0-.05,0-.07v-.1s-.01-.06-.02-.09c0-.03-.02-.05-.03-.08-.01-.04-.03-.07-.04-.11-.02-.05-.05-.1-.08-.14-.04-.06-.09-.12-.13-.18-.13-.15-.27-.29-.43-.43-.22-.19-.45-.36-.69-.52h-.01s0,0,0,0h0s0-.01-.01-.01h0s0,0-.01,0h0c-.47-.3-.97-.55-1.48-.77,0,0-.01,0-.02,0,0,0,0,0-.02,0h0s-.02,0-.03-.01c0,0,0,0-.01,0-1.25-.52-2.56-.86-3.85-1.25-1-.3-1.98-.64-2.96-1.01-1.11-.42-2.2-.9-3.26-1.45-1.22-.63-2.39-1.36-3.55-2.11-1.01-.66-2.01-1.32-3.03-1.96,0,0-.02-.01-.02-.02l-.04-.02s0,0,0,0c0,0,0,0,0,0-1.12-.71-2.27-1.39-3.43-2.04-1.55-.88-3.13-1.73-4.77-2.44-1.08-.45-2.19-.8-3.33-1.07-1.7-.39-3.43-.6-5.16-.69-1.07-.05-2.13-.06-3.2-.08-.65-.01-1.3-.02-1.95-.07-.91-.06-1.82-.16-2.73-.3-2.4-.36-4.72-1.14-6.95-2.09-1.32-.57-2.61-1.19-3.89-1.83-1.68-.85-3.34-1.73-4.95-2.71-1.32-.8-2.59-1.7-3.8-2.65-1.04-.81-2.03-1.68-3.02-2.55-.12-.11-.24-.21-.36-.31-1.37-1.18-2.79-2.29-4.23-3.39-2.11-1.6-4.28-3.11-6.52-4.53-.86-.54-1.73-1.06-2.62-1.54-.75-.39-1.5-.78-2.26-1.11h0s0,0-.01,0c-.02,0-.03-.01-.05-.02-.8-.33-1.62-.61-2.45-.87-.99-.32-1.99-.61-3-.86-.01,0-.02,0-.03,0,0,0-.02,0-.03,0h0c-.86-.2-1.75-.31-2.62-.41-1.05-.12-2.11-.19-3.17-.25-.02,0-.03,0-.04,0h-.03c-1.17-.05-2.34-.1-3.51-.05-1.1.05-2.2.12-3.29.27.03,0,.05,0,.08-.01-.07,0-.14.02-.21.03.02,0,.03,0,.05,0-2.38.34-4.73.84-7.09,1.29-1.29.25-2.59.5-3.88.71-1.43.23-2.86.38-4.3.48-1.81.12-3.62.21-5.43.21-1.07,0-2.14-.05-3.21-.1-1.26-.06-2.52-.14-3.79-.23-2.99-.23-5.97-.61-8.95-1-2.75-.37-5.5-.78-8.23-1.3-2.5-.48-5-1.02-7.48-1.62-2.29-.55-4.56-1.17-6.83-1.8-1.42-.39-2.83-.8-4.24-1.21,1.24.46,2.48.93,3.73,1.39-.03,0-.06-.02-.09-.03-1.24-.39-2.48-.76-3.72-1.12-.36-.14-.71-.27-1.06-.4-.46-.17-.93-.33-1.39-.49-.53-.18-1.06-.38-1.59-.55-2.12-.68-4.25-1.36-6.39-1.99-.95-.28-1.9-.57-2.85-.84-.44-.18-.88-.36-1.32-.53-.84-.34-1.68-.68-2.53-1.02-.05-.02-.1-.04-.15-.05-1.52-.54-3.04-1.07-4.55-1.61-1.55-.56-3.09-1.13-4.63-1.7-1.35-.49-2.71-.96-4.06-1.43-1.39-.48-2.78-.97-4.17-1.45-1.44-.5-2.88-.96-4.34-1.42-3.34-1.04-6.69-2.02-10.05-2.94-2.7-.74-5.41-1.43-8.12-2.12-2.48-.63-4.95-1.28-7.45-1.86-2.19-.51-4.38-1-6.57-1.46-2.62-.55-5.25-1.07-7.87-1.61-1.55-.32-3.09-.65-4.64-.96-1.15-.23-2.3-.46-3.46-.68-1.48-.19-2.95-.38-4.43-.56-3.34-.41-6.67-.82-10-1.21-2.49-.29-4.98-.62-7.47-.86-2.16-.21-4.33-.37-6.5-.48-2.89-.14-5.79-.14-8.68-.05-2.67.09-5.33.3-7.98.57-1.05.11-2.11.22-3.16.36.01,0,.03,0,.04-.01-2.42.34-4.81.87-7.14,1.62h0c-1.2.39-2.38.82-3.53,1.32-1.07.45-2.11,1-3.14,1.54-2.64,1.4-5.18,2.98-7.57,4.77-1.55,1.17-2.97,2.47-4.32,3.85-.83.86-1.63,1.76-2.34,2.72-.71.98-1.36,2-1.95,3.05,0-.01.02-.03.03-.04-.47.86-.88,1.74-1.24,2.65h0c-.36.93-.67,1.88-.93,2.84-.22.86-.39,1.73-.52,2.62-.13,1-.19,2-.2,3,0,1.26.07,2.53.18,3.78,0,.01,0,.02,0,.03.09.88.23,1.75.41,2.61.1.43.21.86.33,1.29.11.39.23.77.36,1.14.42,1.17.9,2.31,1.44,3.43.58,1.17,1.23,2.31,1.95,3.4.38.57.79,1.12,1.23,1.64h0c.64.74,1.34,1.41,2.07,2.05,1.16,1,2.38,1.93,3.66,2.77,0,0,.01,0,.02.01s.02.01.02.02c0,0,.02.01.03.02,1.87,1.18,3.84,2.19,5.88,3.07h0c2.3.96,4.65,1.79,7.04,2.53,2.3.71,4.64,1.34,6.98,1.91,2.65.62,5.32,1.12,8.03,1.45,3.22.39,6.46.64,9.7.82,3.21.16,6.43.2,9.65.23,2.86.04,5.72.07,8.58.14,3.09.07,6.18.16,9.27.29,3.25.14,6.5.31,9.75.54,3.08.21,6.16.47,9.25.71,3.48.27,6.97.51,10.46.68,3.27.16,6.54.25,9.8.25,2.62,0,5.23-.04,7.85-.12,2.7-.08,5.41-.21,8.11-.37,2.7-.16,5.4-.36,8.1-.43.97-.03,1.95-.03,2.92-.03h1.04c1.5,0,3.01,0,4.52.01,3.1.02,6.19.09,9.28.21,2.86.12,5.7.31,8.55.47,2.88.16,5.75.38,8.62.57,1.47.1,2.94.19,4.41.26,3.13.15,6.27.17,9.39.3,2.77.12,5.54.35,8.29.63,2.96.3,5.91.68,8.86,1.12,1.46.22,2.93.46,4.38.73,1.16.21,2.3.46,3.45.71,2.71.6,5.42,1.22,8.12,1.9,1.23.31,2.46.62,3.69.93,1.49.37,2.98.76,4.48,1.11.02,0,.03,0,.04.01.01,0,.02,0,.03,0,0,0,.02,0,.03,0,0,0-.01,0-.02,0,.12.03.24.05.36.09,3.28.77,6.59,1.4,9.91,1.96,3.45.58,6.94,1.02,10.43,1.21,2.27.11,4.55.12,6.82.12,2.14,0,4.29-.08,6.43-.2,2.11-.12,4.21-.29,6.32-.44,2.44-.18,4.88-.45,7.3-.73.92-.11,1.83-.23,2.75-.34.87-.1,1.74-.21,2.61-.3,1.43-.16,2.86-.33,4.29-.48,2.16-.23,4.32-.46,6.5-.55.95-.04,1.9-.07,2.85-.07,1.44,0,2.88.05,4.3.17ZM360.57,470.73c.57.44,1.15.86,1.73,1.27.58.41,1.16.8,1.75,1.18,1.59,1,3.24,1.89,4.91,2.75,1.3.66,2.63,1.3,3.98,1.88,1.8.76,3.64,1.41,5.55,1.86,1.79.41,3.61.57,5.44.67.89.04,1.77.06,2.65.1,2.26.11,4.52.3,6.72.84.69.16,1.38.36,2.05.59.81.27,1.6.62,2.37.99.86.41,1.69.86,2.52,1.31.64.35,1.28.7,1.91,1.06.43.06.85.18,1.23.31,4.01,1.04,8.01,2.32,12.13,2.7,8.24.45,16.32-1.06,24.5-1.39,12.14-1.1,24.46-.92,36.38-3.69,5.39-1.24,9.42-5.16,14.12-7.8,4.56-2.64,10.12-3.84,13.45-8.18,1.65-2.22,3.46-4.42,4.7-6.88,1.51-4.93,1.89-10.63-.27-15.42-3.45-6.84-11.66-10.6-18.36-13.57-18.99-8.36-40.32-7.86-60.54-5.66-12.22,1.06-24.26,3.43-36.25,5.94-9.99,2.02-20.04,3.77-30.02,5.83-19.03,4.84-38.23,12.63-58.19,9.52-2.75-.3-5.26-1.37-7.73-2.52-.05.02-.11,0-.19-.02-.03-.03-.07-.07-.11-.12-1.79-.84-3.56-1.71-5.4-2.36-7.3-1.46-15.18-1.61-22.3.78-4.84,2.1-9.3,4.93-14.38,6.46-.27.09-.54.14-.81.16,1.97.61,3.94,1.2,5.91,1.77,1.95.56,3.9,1.08,5.85,1.6,1.67.44,3.35.87,5.04,1.27.01,0,.02,0,.04,0,0,0,.01,0,.02,0h0c2.07.48,4.16.93,6.25,1.34,2.06.41,4.13.75,6.21,1.07,2.53.38,5.06.74,7.61,1.03,2.26.25,4.52.44,6.79.56.01,0,.02,0,.04,0h0s.02,0,.03,0h.23s0,.01,0,.01c.02,0,.04,0,.07,0,0,0,0,0,0,0,2.29.11,4.58.15,6.86.05,1.77-.08,3.54-.24,5.3-.47,2.12-.29,4.21-.71,6.3-1.14,1.89-.39,3.79-.77,5.7-1.04.76-.1,1.52-.18,2.27-.24.86-.07,1.72-.12,2.59-.14.92-.02,1.84.01,2.76.05.79.04,1.58.08,2.37.15.68.06,1.37.13,2.05.22.65.09,1.29.19,1.93.34,1.37.34,2.71.76,4.04,1.23,1.27.45,2.5,1.01,3.7,1.64,1.54.82,3,1.77,4.45,2.72,1.35.89,2.66,1.83,3.96,2.79,1.03.77,2.04,1.55,3.04,2.36.79.64,1.57,1.3,2.34,1.97,0,0-.01,0-.02-.01.89.77,1.79,1.54,2.72,2.27ZM297.34,442.82c.09.04.18.09.28.13-.32-1.27-.56-2.54-.73-3.83.02,1.05.19,2.08.52,3.08.05.17.12.47-.12.47h0c.02.05.04.1.05.15ZM254.46,365.04c2.69,2.31,5.48,4.39,8.73,5.84.46.36,2.74,1.34,5.01,2.43.39.07.78.2,1.14.38-.54-.77-.98-1.6-1.3-2.46,0,0,0,0,0,0-1.23-1.27-1.98-3.17-3.35-4.37-4.18-4.04-9.69-7.01-15.39-8.03.76,2.73,3.16,4.41,5.16,6.23ZM280.08,361.36c-.59.57-1.17,1.17-1.72,1.79-.64,1.19-1.32,2.36-2.01,3.53-.84,1.25-1.58,2.73-2.52,3.96-.03.07-.05.14-.08.21.13.43.23.87.3,1.32.51-.83,1.23-1.52,2.11-1.92,1.19-.59,2.55-.61,3.82-.72.29,0,.57-.03.86-.08.75-.67,1.45-1.39,2.08-2.2,2.82-2.57,3.33-6.34,4.64-9.7-2.65.94-5.33,1.98-7.48,3.82ZM277.71,346.18c-1.93,2.25-3.32,4.92-4.15,7.76-1.02,2.53-1.63,5.19-1.95,7.88.11,1.61.04,3.23.1,4.83.21.34.41.68.61,1,.48.8.89,1.62,1.2,2.46.09-.16.19-.33.29-.5.84-2.07,1.98-4.04,3.39-5.8,2.67-4.75,4.7-9.62,3.55-15.65-.15-1.27-.58-2.46-1.03-3.64-.03-.07-.06-.13-.14-.13-.89.16-1.29,1.16-1.87,1.77ZM267.68,370.06c-.02-.08-.04-.16-.06-.25,0-.09-.02-.17-.02-.25-.15-.16-.3-.32-.45-.48.19.32.36.65.53.98ZM261.33,345.79c-.09.1-.11.25-.14.37-1.34,9.38.48,16.37,6.38,22.72-.05-1.94.27-3.88-.06-5.8-.01-.28,0-.48,0-.61,0-.02,0-.04,0-.06.04-.25.12-.18.21.04,1.42.51,2.39,1.7,3.22,2.98.03-.96.09-1.93.18-2.88-.03-.68-.08-1.35-.18-2-.75-4.13-2.2-8.31-4.82-11.63-1.14-1.36-2.52-2.47-4.17-3.13-.11-.03-.24-.06-.36-.06-.1,0-.2.02-.27.07ZM284.39,248.4c-2.17,1.39-4.11,3.11-6.28,4.51-.55.42-1.11.84-1.66,1.27.24,3.45-2.64,6.43-5.12,8.87.47-.21.96-.36,1.46-.48.94-.8,1.93-1.52,2.95-2.15,3.98-2.65,8.78-4.97,10.46-9.77.24-.64.21-1.39.04-2-.24-.35-.62-.52-1.01-.52-.29,0-.58.09-.83.27ZM247.95,254.42c.18.13.44.32.77.61,2.84,3.04,7.38,3.59,10.98,5.46-.19-.28-.36-.56-.52-.85-1.35-1.29-2.79-2.5-4.13-3.81-3.07-3.32-7.41-4.9-11.5-6.57-2.41-.8-4.98-.62-7.46-.98-.95-.19-1.9-.39-2.85-.25,1.88,1.38,3.02,3.47,4.44,5.24,2.19,2.26,4.81,4.07,7.83,4.94.96.29,1.91.62,2.84.98-.42-1.3-.68-2.64-.79-3.95,0-.04.02-.09.04-.13-.02-.1-.04-.2-.04-.3h0c-.09-.31-.46-1.3.07-.67.03,0,.05-.01.07-.01.13,0,.2.15.24.3ZM267.72,217.7c-1.55,1.79-2.65,3.89-3.45,6.09-2.48,7.33.7,14.98.73,22.46.3,3.45-.51,6.85-.79,10.26.43.98.72,2,.93,3.04.11-2.17.95-4.18,1.89-6.13,2.16-6.7,4.94-13.26,5.34-20.32-.13-5.36-.98-11.05-4.25-15.44-.05-.05-.1-.07-.15-.07-.09,0-.18.05-.25.12ZM283.03,228.85c-4,3.46-5.68,8.79-8.76,13-2.01,3.1-4.04,6.27-5.74,9.59-.23.68-.46,1.36-.7,2.04-.61,1.66-1.13,3.32-1.54,5,0-.01.02-.03.02-.04,1.09-1.78,2.66-3.09,4.42-4.09,3.03-4.5,7.03-8.41,10.97-12.06,4.97-4.81,8.17-8.28,7.55-15.6,0-.02-.01-.03-.02-.04-2.07.79-4.54.61-6.21,2.21ZM256.82,248.33c1.89,1.98,4.21,3.55,5.9,5.7-.25-3.41-.6-6.8-1.77-10-1.79-4.98-4.59-9.61-8.61-13.09-2.08-1.51-4.25-2.97-6.27-4.5-.45.05-.41.47-.36.81.31,2.97.52,6.07,1.52,8.89,2.21,5.41,5.78,10.16,9.1,14.91.27.41.55.81.85,1.21-.04-.13-.07-.26-.11-.39-.18-1.23-.9-2.47-.89-3.68.07-.11.15-.15.23-.15.15,0,.32.14.41.28ZM304.62,216.04c-.09.08-.17.16-.18.28,1.35,2.91,3.5,5.63,5.91,7.75,2.75,2.29,6.34,3.34,8.82,6.01,1.75,1.75,3.53,3.49,5.2,5.32,1.46.6,2.82,1.42,4.02,2.49,1.53,1.39,3.02,3.62,3.86,5.98-.06-.43-.14-.85-.25-1.27-.39-2.15-1.07-4.26-1.59-6.39-.59-1.48-1.25-2.92-2.14-4.26-4.16-7.69-10.92-14.66-19.91-15.9-.72-.19-1.51-.42-2.26-.42-.52,0-1.02.11-1.48.41ZM358.47,222.12c-2.81,1.31-5.82,2.35-8.26,4.3-2.59,1.99-4.75,4.47-6.42,7.26-.64.91-1.31,1.81-1.97,2.71-1.44,2.33-2.82,4.82-4.3,7.25.46-.43.96-.81,1.49-1.14,5.52-5.77,12.06-10.57,19.16-14.24,3.18-1.88,6.73-3.2,9.86-5.11,1.78-1.58,3.18-3.52,4.69-5.34-5.02.41-9.73,2.2-14.25,4.31ZM351.53,196.44c-2.8,3.5-4.34,7.8-6.64,11.62-3.83,5.57-6.77,11.78-6.93,18.64.09.03.14.13.15.23,0,.1-.05.25-.17.26-.07.96-.15,1.92-.23,2.89,1.27,4,1.04,8.3-.58,12.23.38-.66.76-1.3,1.16-1.94.48-.64.95-1.29,1.4-1.95.57-.98,1.15-1.96,1.75-2.92,2.19-3.57,4.81-6.87,6.65-10.64,2.96-5.45,4.75-11.43,5.7-17.52.3-2.91,1.16-5.91.38-8.78-.32-1.01-.46-2.12-1.12-2.92-.59.06-1.14.4-1.52.81ZM320.6,194.81c-2.61,4.35-1.91,10.1-.55,14.82,1.5,4.55,4.32,8.48,6.38,12.77,1.17,2.44,2.36,4.9,3.38,7.42.39-2.68,1.69-5.13,2.4-7.74.05-.18.04-.52.29-.57.23,0,.34.26.46.42.68,1.11,1.46,2.16,2.21,3.22-.39-6-1.24-12.08-3.94-17.46-2.75-4.8-6.05-9.46-10.44-12.88-.05-.02-.08-.04-.12-.04-.02,0-.05.01-.08.03ZM265.03,41.8c-1.02.08-2.13.35-2.88,1.07-1.15,1.26.86,3.05-.27,4.52-1.02,1.5-2.93,1.86-4.52,2.47-3.83,1.64-1.83,6.5-3.74,9.42-.93,1.65-2.85,2.65-4.22,3.77-.4.33-.66.73-.35,1.23.73,1.27,1.69,2.78.89,4.26-1.06,1.9-3.21,3.04-4.47,4.77-3.02,3.66.91,8.16.18,12.29-.15,1.93-.72,3.79-1.48,5.55-.95,2.37-2.86,4.63-2.46,7.32.4,2.04,1.45,3.94,1.53,6.05.65,5.02-4.8,8.09-4.82,12.88.58,4.24,3.97,8.61.11,12.35-1.24,1.41-2.7,2.81-3.01,4.75-.49,3.22,2.15,6.36.6,9.55-1.28,2.74-4.01,5.14-3.16,8.46.45,2.19,2.14,3.94,2.36,6.2.31,5.21-6.85,6.89-7.13,11.86-.18,2.07,1.41,4.01.57,6.05-.69,2.18-3.23,3.28-3.68,5.56-.08,2.81,1.11,5.54.21,8.35-.18.85-.5,1.76-1.1,2.38t0,0c-.27.48-.55.95-.82,1.41-.29.45-.55.92-.82,1.38t0,0c-.02.05-.05.11-.07.16,2.56-1.39,5.24-2.53,8.07-3.26.52-.16,1.04-.32,1.56-.47.02-.09.05-.18.07-.25.34-.99.91-1.87,1.46-2.75.46-1.5,1.74-2.56,2.82-3.7,2.01-2.27,4.77-4.43,5.55-7.46-.44-3.37-2.14-6.95-.12-10.19,2.98-4.71,8.44-8.57,4.46-14.53-1.63-2.5-3.55-5.11-3.52-8.24-.32-5.94,6.46-10.26,4.66-16.28-1.16-2.67-3.59-4.91-3.37-8.05.11-3.54,2.38-6.74,3.39-10,2.22-6.49-3.57-11,2.97-16.74,2.01-2.23,5.13-4.12,5.6-7.28-.04-1.96-.07-4.12,1.38-5.65,2.38-2.92,6.54-3.59,8.97-6.36.61-.79.66-1.84,1.09-2.72.62-1.55,1.89-2.7,3.32-3.51,12.26-5.76,4.64-5.05,10.88-9.97,3.57-2.82,9.13-2.31,12.05-6.07.32-.81-.05-1.66-.07-2.5-.12-.45-.17-.92-.31-1.36-.79-1.32-2.62-1.03-3.95-1.15-1.91-.03-2.42-2.33-4.14-2.75-1.05-.2-2.12-.07-3.19.06-1.48.18-2.96.37-4.38-.34-2.59-1.64-5.45-1.97-8.39-2.17-1.29-.19-2.52-.36-3.75-.36-.19,0-.38,0-.56.01ZM242.26,181.67s-.05.07-.08.11c-.01.02-.03.04-.04.06-.09.13-.18.26-.27.39-.02.03-.04.06-.06.09-.02.03-.04.06-.06.09l-.26.34c-1.18,1.55-2.53,2.92-3.89,4.36-.82.79-1.58,1.86-2.56,2.45-.02.03-.05.07-.07.1-.41.61-.65,1.28-.92,1.95,2.25-.57,4.52-1.03,6.79-1.48.33-.36.71-.68,1.09-.99.03-.04.06-.07.09-.11.16-.21.32-.42.49-.62t0,0c.38-.63.86-1.18,1.39-1.65.15-.17.34-.32.54-.45t0,0s.04-.03.05-.04c.05-.04.1-.07.15-.12.02,0,.03-.02.05-.04.43-.33.85-.68,1.25-1.05.34-.4.7-.78,1.13-1.1.07-.05.14-.11.2-.16.05-.04.09-.09.14-.14.09-.14.18-.28.29-.41.02-.03.05-.06.07-.09.32-.28.66-.57,1.02-.84.33-.26.67-.5,1.02-.73,0,0,.01,0,.01,0,.07-.07.14-.15.21-.23h0s0-.02,0-.02c.14-.91.06-1.88.3-2.77.16-.82.44-1.59.8-2.31h0c.13-.27.28-.52.43-.78.88-1.48,2.05-2.82,3.05-4.23h0s.04-.05.05-.07h0c.23-.33.46-.66.67-1,.37-.5.57-1.02.64-1.54,0,0,0,0,0-.01s0-.01,0-.02v-.13c.03-.14.04-.27.03-.41h0s0-.05,0-.08c0-.14-.01-.28-.03-.42,0-.01,0-.03,0-.04-.19-1.55-1.07-3.15-1.28-4.68-.46-2.43.36-4.88,1.26-7.12,4.91-9.67-1.2-9.25-1.65-17.07.45-6.14,5.81-9.76,1.15-15.86-3.72-5.61,2.11-8.99,3.29-14.01.25-1.88-.45-3.67-.79-5.49-1.12-4.01,1.53-7.16,4.82-9.04.01-.1.04-.21.06-.31.46-1.43,1.49-2.54,2.59-3.58.13-.17.27-.33.41-.5.43-.74.23-1.59.7-2.28.44-.66.97-1.27,1.61-1.74.66-.73,1.86-1.36,4.14-1.88,1.45-.38,3.01-.59,4.29-1.44,1.25-.94,2.18-2.35,3.77-2.76,3.61-1.34,14.39-1.39,15.69-5.1.27-1.01-.84-1.67-1.35-2.4-2.55-3.04,1.65-4.66,2.94-6.97,2.04-3.05-.9-3.95-1.93-6.36-.29-.92.14-1.86.73-2.56.45-.59.88-1.04,1.11-1.66.2-1.08-.52-2.22-1.4-2.82-.09-.04-.2-.1-.3-.16.14,5-7.5,6.38-11.52,7.79-1.33.73-2.84,1.5-3.62,2.85-.36,1.54-.88,3.07-2.14,4.12-2.85,2.88-8.3,3.09-9.74,7.26-.3,1.29-.93,2.51-1.94,3.39-1.9,1.77-4.42,2.61-6.55,4.05-.84.64-1.77,1.29-2.25,2.27-.44,1.04-.21,2.18-.28,3.27-.04,2.27-1.44,4.17-2.95,5.74-1.77,2.08-4.27,3.61-5.54,6.09-.45,1.05-.56,2.21-.34,3.33.67,2.8,1.31,5.75.47,8.58-.78,3.26-2.74,6.11-3.46,9.38-.64,2.67,1.35,4.8,2.54,6.97.98,1.98,1.15,4.3.66,6.44-.81,4.1-4.34,7.17-4.64,11.39-.22,3.13,2.11,5.52,3.52,8.08,3.78,6.71-.8,11.02-4.68,16.08-2.68,3.91,2.18,8.57-.86,12.4-.02.03-.03.05-.05.08h0c-.07.12-.16.25-.23.37ZM243.76,189.01c-.1.27-.35.48-.63.68l1.41-.27c.07-.45.19-.89.36-1.33-.37.32-.75.62-1.13.91ZM253.6,181.45c-.17.07-.34.15-.5.25-.13.08-.26.16-.39.25l-.15.09c-.06.04-.13.09-.19.14-.09.07-.18.15-.27.23-.02.02-.03.03-.05.04-.07.07-.14.13-.2.21-.02,0-.04,0-.06.01-.03.03-.06.05-.1.08,0,.02,0,.04-.02.07-.04.04-.09.08-.12.12-.12.12-.22.27-.32.42-.12.19-.23.38-.34.58-.08.14-.16.29-.24.43-.09.17-.18.34-.28.5,0,0,0,0,0,0h0c-.12.19-.26.36-.4.52-.09.1-.18.2-.26.29-1.05.91-2.25,1.68-2.84,2.97-.04.11-.07.22-.11.33,3.85-.79,7.66-1.71,11.33-3.17,1.12-.42,2.24-.83,3.36-1.27.44-.17.88-.35,1.31-.53h0c.16-.07.33-.14.49-.21.29-.12.57-.25.86-.39h0c.11-.05.21-.1.32-.15.07-.04.14-.07.22-.11l.05-.02h0c.19-.09.38-.19.57-.29,0,0,0,0,0,0,.66-.34,1.31-.71,1.93-1.11.21-.13.42-.27.63-.41.23-.18.46-.36.69-.54.37-.3.73-.61,1.07-.93,0,0,.01,0,.02-.01.04-.04.08-.07.12-.11.23-.22.45-.44.68-.67.03-.03.07-.07.1-.1,0,0,.02-.02.03-.02.04-.04.08-.08.12-.12-.07.03-.14.06-.22.09l.13-.12c.13-.13.25-.26.38-.39.03-.02.05-.05.08-.07.07-.07.14-.14.2-.21.07-.07.14-.14.2-.22.03-.02.06-.03.09-.04,3.26-3.83,5.39-8.66,6.37-13.52.79-6.36.51-12.75,1.29-19.11.12-1.36-.06-2.78.18-4.12-.01-.21-.02-.42-.05-.63-.01-.25-.07-.52-.09-.8h0v-.04c0-.06-.01-.12-.01-.19-.02-.13-.02-.31,0-.49-.09-.25-.2-.5-.27-.75-1.3-1.23-2.54-2.52-3.7-3.88-1.39-1.64-2.97-3.22-4.44-4.86.17.49.31,1,.39,1.53.82,2.99-1.15,6.17.41,9.01,2.61,4.73,2.3,10.39,1.82,15.52-.31-5.07-.53-10.41-3.01-14.96-1.63-2.81-.04-5.95-.5-8.93-.45-2.18-1.4-4.11-2.36-6.09-.16-.34-.3-.68-.41-1.02-.02-.04-.05-.09-.07-.14-.02-.1-.04-.2-.06-.29,0,0,0-.02,0-.02-.1-.36-.18-.73-.24-1.1-.19-.84-.4-1.67-.54-2.52-.06-1.43.03-2.8.2-4.16-.55,1.14-1.25,2.24-1.61,3.42-.99,3.39.61,6.79,2.19,9.73,2.06,3.71,2.9,8.27,1.66,12.39-.63,2.35-2.12,4.44-2.37,6.88-.11,3.52,2.71,6.14,3.95,9.22,2.09,4.77-2.11,8.75-4.97,12.05-1.31,1.42-1.34,3.32-1.61,5.12-1.36,4.02-6.23,4.73-9.72,6.23h0c-.1.03-.2.07-.3.11ZM259.48,101.69c.32,2.78,1.63,5.57.82,8.38-.68,2.96-3.07,5.07-4.1,7.86-.62,1.64.37,3.14,1.15,4.51,2.18,3.12,2.39,7.13.64,10.5-4.9,9.39,1.26,8.78,1.68,16.73.08,3.24-1.82,6.08-2.75,9.06-1.2,2.82.29,5.53.88,8.28.82,4.01-2.95,6.84-4.77,9.97-.47.69-.7,1.45-.83,2.23,2.93-1.3,6.36-1.68,8.85-3.84.42-.38.76-.94.76-1.51-.58-5.94,6.46-8.17,6.94-13.46-.43-2.81-2.64-4.84-3.66-7.41-3.43-7.58,4.56-10.86,1.52-19.74-2.3-5.44-5.44-11.64-1.41-17.09.52-1.02,1.3-2.06,1.08-3.26-.02-.09-.03-.19-.01-.29-3.34-2.26-3.75-6-3.06-9.59-.13-1.96-.16-3.93-.09-5.91-.02-.21-.04-.42-.08-.63-1.91,1.35-3.55,2.71-3.55,5.2ZM298.93,148.51c.62.04,1.24.07,1.82-.02,2.57-.08,4.57-1.62,6.49-3.14,3.36-2.46,6.57-5.15,9.3-8.3,1.08-1.15,2.38-2.11,3.54-3.15,1.39-1.47,2.75-3.02,4-4.63-.27-1.31-.38-2.63-.05-4.02.42-3.74,1.98-7.27,3.07-10.84.96-2.41,2.16-4.72,2.54-7.31.08-.28.15-.55.22-.83-.01-.77.09-1.54.12-2.29,0-.16.03-.49.19-.52.04-.07.09-.11.17-.11h0c.02-.2.04-.39.05-.59-2.43-2.74-.93-5.52.13-9.99.71-2.53-.82-4.27-3.21-4.88-3.65-.71-8.85-.7-9.63-5.32-.37-1.21-.3-2.67-1.09-3.71-1.13-.88-2.66-.77-4.12-.65-.51.04-1.01.08-1.47.08-3.53.22-7.17,1.29-10.59,0-1.55-.73-2.43-1.87-2.85-3.22-.02,0-.04-.02-.05-.04-.22,1.05-.88,2.06-1.73,2.73-3.35,2.24-7.71,2.33-11.56,3.18-1.63.26-3.48.39-4.82,1.45-1.88,2.59-4.95,3.24-7.9,3.86-.95.35-2.3.59-2.61,1.67-.05,3.99-2.21,5.95-4.45,7.57.04.3.11.61.18.93.12,2.99-.48,5.98-.92,8.94-.1,5.24,2.86,4.74,3.79,7.55.28.82.38,1.92.19,3.52-.02,1.61-.13,3.22-.1,4.82.22.8.46,1.58.63,2.42,1.07,1.86,2.77,3.34,4.17,4.98,4.77,5.11,9.3,10.58,15.38,14.17,2.69,2.12,5.54,3.67,8.53,5.24.29.11.57.27.81.46h0c.28-.05.56-.06.84-.06.32,0,.65.02.98.04ZM325.1,126.96c-.03.32-.03.63,0,.93.78-1.1,1.5-2.23,2.14-3.39,1.19-2.93,1.74-5.97,1.78-9.09.19-1.45.39-2.88.55-4.33-1.67,5.25-4.12,10.4-4.48,15.88Z"/>
  <path class="cls-1" d="M346.65,245.7c2.76-2.44,6.71-2.5,10.12-3.26,3.63-1.37,7.52-2.33,10.55-4.85,2.4-1.92,4.23-4.36,5.58-7.11.06-.12.04-.24,0-.34-.55-.97-1.8-.59-2.66-.28-1.97.72-3.99,1.25-6.04,1.71-3.99,1.19-8.29.99-12.21,2.45-3.86,1.41-7.49,3.99-10,7.21,0,0,0,0,0,0h0s0,0,0,0c.09.04.03.07-.03.07-.1-.01-.11-.15-.11-.23.08-.79.73-1.37,1.25-1.91,1.34-1.14,2.72-2.25,4.14-3.29,3.74-2.67,8.39-3.43,12.83-3.93,3.32-.57,6.62-1.39,9.81-2.46.84-.27,1.83-.72,2.68-.27.56.32,1,.98.66,1.62-1.66,3.34-4.07,6.27-7.22,8.31-1.85,1.31-4.04,1.93-6.14,2.66-2.15,1.13-4.56,1.51-6.94,1.84-1.52.25-2.98.68-4.34,1.4-.61.26-1.26.78-1.94.68Z"/>
  <path class="cls-1" d="M337.45,243.45c0-.11.05-.26.18-.26s.21.12.21.24c0,.11-.05.26-.18.26s-.21-.12-.21-.24Z"/>
  <path class="cls-1" d="M84.07,411.35c-5.82-.36-12.78-.14-16.96-4.92-.83-.59.09-1.49.81-.99.32.29.87.64,1.18.86,3.03,1.71,6.31,2.96,9.79,2.87,2.43.1,5.01-.32,7.36.36.47.2.92.52,1.27.88-1,.75-2.22,1.02-3.45.94Z"/>
  <path class="cls-1" d="M69.48,406.98c-.67-.15-1.19-.56-1.67-1.02-.22-.14-.48-.5-.15-.68.18-.08.42,0,.56.12.49.44,1.2.91,1.26,1.58Z"/>
  <path class="cls-1" d="M69.87,407.26c-1.1-.38-1.91-1.25-2.74-2.04-.12-.15-.05-.34.11-.43.18-.09.42-.06.55.1.81.65,1.58,1.5,2.08,2.36Z"/>
  <path class="cls-1" d="M70.45,407.52c-.4-.16-3.08-1.38-2.21-1.81.76.05,1.75,1.25,2.21,1.81Z"/>
  <path class="cls-1" d="M71.93,408.02c-1.21-.14-2.32-.66-3.27-1.41-.5-.26-.87-.87-.05-.78,1.07.78,2.29,1.45,3.33,2.18Z"/>
  <path class="cls-1" d="M69.92,407.29c-.76-.31-1.43-1.04-1.83-1.68.44.15,3.63,1.98,1.83,1.68Z"/>
  <path class="cls-1" d="M68.63,407.72c-.7-.38-1.35-.92-1.56-1.71.77.27,1.55.82,2.13,1.37.11.31-.34.49-.57.34Z"/>
  <path class="cls-1" d="M85.61,411.39c-.14-.05-.29-.14-.35-.28.22-.14.55-.25.79-.12.32.28-.17.55-.44.4Z"/>
  <path class="cls-1" d="M85.95,411.47c-.43-.08-.91-.12-1.35-.2-.16-.03-.31-.22-.2-.38.07-.09.18-.14.3-.14.95.14,2.02.1,2.82.72-.47.17-1.06.09-1.57,0Z"/>
  <path class="cls-1" d="M90.42,412.79c-1.45-.14-2.77-.86-4.2-1.15-.41-.11-3.34-.31-2.5-.96.66-.26,1.48.14,2.11.21,1.42.23,2.79.8,4.14,1.21.44.2,1.03.09,1.32.24.34.52-.56.53-.88.45Z"/>
  <path class="cls-1" d="M91.35,411.84c-1.83-.43-3.59-1.04-5.39-1.53-.6-.15-1.3-.35-1.76-.73,1.61-.29,3.18.39,4.7.84,1.11.35,2.22.78,3.34.95.54.49-.57.59-.89.47Z"/>
  <path class="cls-1" d="M83.96,409.71c.02-.46.85-.46.87,0-.02.46-.85.46-.87,0Z"/>
</svg>