<svg width="205" height="159" viewBox="0 0 205 159" fill="none" xmlns="http://www.w3.org/2000/svg">
<path d="M133.862 123C127.994 123 123.197 121.114 119.471 117.342C115.824 113.57 114 108.108 114 100.957C114 96.0059 114.872 91.2515 116.617 86.6935C118.361 82.1356 120.739 78.0884 123.752 74.5521C126.845 70.9371 130.452 68.1081 134.575 66.0648C138.698 64.0216 143.138 63 147.896 63C152.811 63 156.538 64.1002 159.075 66.3006C161.692 68.501 163 71.4479 163 75.1415C163 79.6208 159.987 84.0609 153.961 88.4617C148.015 92.7839 139.372 96.1631 128.034 98.5992C128.272 103.707 129.501 107.44 131.721 109.798C133.941 112.155 136.994 113.334 140.879 113.334C144.367 113.334 147.499 112.43 150.274 110.623C153.049 108.815 156.351 105.967 158.254 103.531L160.038 104.828C158.452 107.814 155.428 111.369 152.891 114.041C150.433 116.713 147.618 118.874 144.447 120.525C141.275 122.175 137.747 123 133.862 123ZM146.706 67.0079C144.883 67.0079 142.94 67.7937 140.879 69.3654C138.817 70.8586 136.835 72.9411 134.932 75.613C133.108 78.2063 131.562 81.2318 130.294 84.6896C129.025 88.0688 128.272 91.6837 128.034 95.5344C136.914 92.9411 143.138 89.7191 146.706 85.8684C150.354 82.0177 152.177 77.9312 152.177 73.609C152.177 71.3301 151.662 69.6798 150.631 68.6582C149.6 67.558 148.292 67.0079 146.706 67.0079Z" fill="white"/>
<path d="M36 123L36.5282 120.236L38.7729 119.315C41.9419 118.086 44.5189 116.67 49.2597 111.846C54.0004 107.023 57.229 84.7881 57.229 84.7881C58.3706 79.5183 59.9437 67.4916 60.824 62.4023C61.7043 57.2253 62.2552 51.9721 61.5396 46.3002C60.824 40.6283 55.8944 40.6066 52.3733 39.2904L51.0529 38.764L51.7131 36H83.1391C90.0053 36 95.4631 36.9213 99.5124 38.764C103.562 40.6066 106.467 43.0196 108.227 46.003C110.076 48.8986 111 52.1013 111 55.6112C111 60.6127 108.799 65.1755 104.398 69.2995C100.085 73.3358 93.6145 75.8805 84.9877 76.9334C93.6145 78.0741 99.8645 80.7065 103.738 84.8305C107.699 88.9546 109.68 93.6051 109.68 98.7821C109.68 103.082 108.359 107.074 105.718 110.759C103.078 114.445 98.9842 117.428 93.4384 119.71C87.8926 121.903 80.6743 123 71.7835 123H36ZM68.6145 75.354H73.6321C80.4103 75.354 85.5159 73.6429 88.949 70.2209C92.3821 66.711 94.0986 61.8411 94.0986 55.6112C94.0986 50.6097 92.8662 46.7488 90.4014 44.0287C88.0247 41.2209 84.5036 39.8169 79.8381 39.8169H75.3486L68.6145 75.354ZM60.824 119.183H69.0106C76.8451 119.183 82.655 117.077 86.4402 112.865C90.3134 108.654 92.25 103.213 92.25 96.5446C92.25 84.8744 86.3522 79.0393 74.5564 79.0393H67.9543L67.2941 82.1982C66.2377 88.3404 65.1374 94.4826 63.993 100.625C62.8486 106.767 61.7923 112.953 60.824 119.183Z" fill="white"/>
</svg>
